<svg xmlns="http://www.w3.org/2000/svg" width="32" height="32" viewBox="0 0 32 32">
  <g id="attach-file-icon" transform="translate(-589 -1060)">
    <rect id="Rectangle_1329" data-name="Rectangle 1329" width="32" height="32" rx="16" transform="translate(589 1060)" fill="#ebf3ff"/>
    <path id="Icon_metro-attachment" data-name="Icon metro-attachment" d="M14.243,7.453l-1.1-1.1L7.658,11.843a2.328,2.328,0,0,0,3.292,3.292l6.585-6.584a3.879,3.879,0,0,0-5.487-5.486L5.135,9.977l-.015.014a5.411,5.411,0,1,0,7.653,7.651l.014-.015h0l4.719-4.718-1.1-1.1-4.719,4.718-.014.014a3.859,3.859,0,0,1-5.458-5.456l.015-.014h0l6.914-6.912a2.328,2.328,0,0,1,3.292,3.292L9.853,14.037a.776.776,0,0,1-1.1-1.1l5.487-5.487Z" transform="translate(593.428 1065.173)" fill="#616161"/>
  </g>
</svg>
