<svg xmlns="http://www.w3.org/2000/svg" width="32" height="32" viewBox="0 0 32 32">
  <g id="call-icon" transform="translate(-556 -470)">
    <circle id="Ellipse_236" data-name="Ellipse 236" cx="16" cy="16" r="16" transform="translate(556 470)" fill="#18d9c5"/>
    <path id="Icon_metro-phone-in-talk" data-name="Icon metro-phone-in-talk" d="M19.77,16.238a8.953,8.953,0,0,1-2.8-.447.788.788,0,0,0-.8.192l-1.727,1.731a11.841,11.841,0,0,1-5.173-5.169L11,10.814a.787.787,0,0,0,.192-.8,8.978,8.978,0,0,1-.447-2.806.782.782,0,0,0-.785-.785H7.212a.782.782,0,0,0-.785.785A13.342,13.342,0,0,0,19.77,20.555a.782.782,0,0,0,.785-.785V17.023a.782.782,0,0,0-.785-.785Zm-.785-2.747h1.57a7.065,7.065,0,0,0-7.064-7.064V8A5.5,5.5,0,0,1,18.985,13.491Zm-3.14,0h1.57a3.926,3.926,0,0,0-3.925-3.925v1.57A2.357,2.357,0,0,1,15.846,13.491Z" transform="translate(558.125 472.125)" fill="#fff"/>
  </g>
</svg>
