<svg xmlns="http://www.w3.org/2000/svg" width="24" height="24" viewBox="0 0 24 24">
  <g id="chat-icon" transform="translate(1364 6438)">
    <rect id="Rectangle_1343" data-name="Rectangle 1343" width="24" height="24" transform="translate(-1364 -6438)" fill="none"/>
    <g id="Group_40117" data-name="Group 40117" transform="translate(57.252 75.73)">
      <path id="Path_19776" data-name="Path 19776" d="M21.127,4.5H3.871a.5.5,0,0,0-.5.422V15.99a.518.518,0,0,0,.5.446H6.837v4.593l4.657-4.593h9.633a.417.417,0,0,0,.385-.446V4.922A.4.4,0,0,0,21.127,4.5Z" transform="translate(-1423.375 -6515.5)" fill="none" stroke="#68119a" stroke-width="1.5"/>
      <path id="Path_19777" data-name="Path 19777" d="M26.923,8.93H25.249v8.607c0,.826-.357,1.366-1.3,1.366H14.61L12.6,20.917h6.7l4.657,4.6v-4.6h2.966a.426.426,0,0,0,.393-.449V9.4A.447.447,0,0,0,26.923,8.93Z" transform="translate(-1425.821 -6516.675)" fill="#68119a"/>
    </g>
  </g>
</svg>
