<svg xmlns="http://www.w3.org/2000/svg" width="64" height="65" viewBox="0 0 64 65">
  <g id="deals-icon" transform="translate(-1 -1)">
    <ellipse id="Ellipse_210" data-name="Ellipse 210" cx="30" cy="29.5" rx="30" ry="29.5" transform="translate(3 6)" fill="#e7efff"/>
    <ellipse id="Ellipse_211" data-name="Ellipse 211" cx="30" cy="29.5" rx="30" ry="29.5" transform="translate(3 7)" fill="#ebf3ff"/>
    <path id="Path_19437" data-name="Path 19437" d="M19.319,19.33a.593.593,0,0,1-.326.527,5.79,5.79,0,0,0-2.916,3.36l-.314,1.043a.593.593,0,0,1-1.126,0l-.344-1.043a5.79,5.79,0,0,0-2.916-3.36.593.593,0,0,1,0-1.055,5.79,5.79,0,0,0,2.916-3.36l.344-1.043a.593.593,0,0,1,1.126,0l.344,1.043a5.79,5.79,0,0,0,2.916,3.36A.593.593,0,0,1,19.319,19.33Z" transform="translate(-4.097 -5.293)" fill="#18d9c5"/>
    <path id="Path_19438" data-name="Path 19438" d="M89.319,45.33a.593.593,0,0,1-.326.527,5.79,5.79,0,0,0-2.916,3.36l-.314,1.043a.593.593,0,0,1-1.126,0l-.344-1.043a5.79,5.79,0,0,0-2.916-3.36.593.593,0,0,1,0-1.055,5.79,5.79,0,0,0,2.916-3.36l.344-1.043a.593.593,0,0,1,1.126,0l.344,1.043a5.79,5.79,0,0,0,2.916,3.36A.593.593,0,0,1,89.319,45.33Z" transform="translate(-32.615 -15.886)" fill="#18d9c5"/>
    <ellipse id="Ellipse_212" data-name="Ellipse 212" cx="1.5" cy="2" rx="1.5" ry="2" transform="translate(2 1)" fill="#18d9c5"/>
    <circle id="Ellipse_213" data-name="Ellipse 213" cx="2" cy="2" r="2" transform="translate(56 4)" fill="#00c99f"/>
    <circle id="Ellipse_214" data-name="Ellipse 214" cx="2" cy="2" r="2" transform="translate(61 59)" fill="#18d9c5"/>
    <ellipse id="Ellipse_215" data-name="Ellipse 215" cx="2" cy="1.5" rx="2" ry="1.5" transform="translate(1 57)" fill="#00c99f"/>
    <path id="Path_19439" data-name="Path 19439" d="M77.073,78.031c0,.419.041,1.213,0,1.631A29.239,29.239,0,0,1,59.838,90.4,13.05,13.05,0,1,1,77.073,78.031Z" transform="translate(-20.369 -26.068)" fill="#68119a"/>
    <path id="Path_19440" data-name="Path 19440" d="M76.148,80.071a10.015,10.015,0,0,1-2.85,7.016,28.13,28.13,0,0,1-3.828,2.465,10.074,10.074,0,1,1,6.679-9.481Z" transform="translate(-22.407 -28.108)" fill="#18d9c5"/>
    <path id="Path_19441" data-name="Path 19441" d="M44.99,38.7V73a3,3,0,0,1-2.2,2.873,3.231,3.231,0,0,1-.84.114H40.122A30.575,30.575,0,0,1,17,65.519V38.7a2.958,2.958,0,0,1,.828-2.049l8.354-8.716A3.069,3.069,0,0,1,28.4,27h5.2a3.069,3.069,0,0,1,2.215.938l8.354,8.716A2.958,2.958,0,0,1,44.99,38.7Z" transform="translate(-7.012 -10.593)" fill="#68119a"/>
    <circle id="Ellipse_216" data-name="Ellipse 216" cx="3" cy="3" r="3" transform="translate(21 22)" fill="#323fd4"/>
    <path id="Path_19442" data-name="Path 19442" d="M40.37,8.185V27.077a1.227,1.227,0,0,1-.984,1.256A1.185,1.185,0,0,1,38,27.148V8.185A1.185,1.185,0,0,1,39.185,7h0A1.185,1.185,0,0,1,40.37,8.185Z" transform="translate(-15.074 -2.444)" fill="#8fa2ff"/>
    <path id="Path_19443" data-name="Path 19443" d="M70.748,81.111h-.593a2.074,2.074,0,0,1,0-4.148h3.259a.593.593,0,0,0,0-1.185h-2.37V74.593a.593.593,0,0,0-1.185,0v1.185a3.263,3.263,0,0,0,.3,6.519h.593a2.074,2.074,0,0,1,0,4.148H67.488a.593.593,0,0,0,0,1.185h2.37v1.185a.593.593,0,0,0,1.185,0V87.63a3.263,3.263,0,0,0-.3-6.519Z" transform="translate(-26.785 -29.741)" fill="#fff"/>
    <rect id="Rectangle_1248" data-name="Rectangle 1248" width="19" height="20" rx="4" transform="translate(15 31)" fill="#18d9c5"/>
    <path id="Path_19444" data-name="Path 19444" d="M37.748,63.111h-.593a2.074,2.074,0,1,1,0-4.148h3.259a.593.593,0,1,0,0-1.185h-2.37V56.593a.593.593,0,0,0-1.185,0v1.185a3.263,3.263,0,1,0,.3,6.519h.593a2.074,2.074,0,1,1,0,4.148H34.488a.593.593,0,1,0,0,1.185h2.37v1.185a.593.593,0,0,0,1.185,0V69.63a3.263,3.263,0,1,0-.3-6.519Z" transform="translate(-13.34 -22.407)" fill="#fff"/>
    <rect id="Rectangle_1249" data-name="Rectangle 1249" width="7" height="1" rx="0.5" transform="translate(15 53)" fill="#8fa2ff"/>
    <rect id="Rectangle_1250" data-name="Rectangle 1250" width="7" height="1" rx="0.5" transform="translate(15 56)" fill="#8fa2ff"/>
  </g>
</svg>
