<svg xmlns="http://www.w3.org/2000/svg" width="135" height="105" viewBox="0 0 135 105">
  <g id="email-verification-icon" transform="translate(1509 -5295)">
    <g id="Group_39799" data-name="Group 39799" transform="translate(-1509 5295)">
      <g id="undraw_opened_re_i38e" transform="translate(0 0)">
        <path id="Path_19494" data-name="Path 19494" d="M442.553,571.656c-.21.292-.422.581-.631.869a3.612,3.612,0,0,1-2.05.633H327.122a3.628,3.628,0,0,1-1.97-.579c-.195-.256-.387-.513-.582-.771l.195-.106,57.079-31.5a3.441,3.441,0,0,1,3.31,0l57.207,31.349Z" transform="translate(-323.485 -468.158)" fill="#68119a"/>
        <path id="Path_19495" data-name="Path 19495" d="M435.887,266.656l-49.468-28.439a13.751,13.751,0,0,0-13.689-.007l-49.593,28.446a3.634,3.634,0,0,0-3.637,3.621v60.487a3.633,3.633,0,0,0,3.637,3.621h112.75a3.635,3.635,0,0,0,3.637-3.621V270.276A3.634,3.634,0,0,0,435.887,266.656Zm3.209,64.107a3.21,3.21,0,0,1-3.209,3.195H323.137a3.208,3.208,0,0,1-3.209-3.195V270.276a3.206,3.206,0,0,1,3.209-3.195l49.593-28.446a13.751,13.751,0,0,1,13.689.007l49.468,28.44a3.206,3.206,0,0,1,3.209,3.195Z" transform="translate(-319.5 -229.384)" fill="#3f3d56"/>
        <path id="Path_19496" data-name="Path 19496" d="M449.535,275.387a3.3,3.3,0,0,1-1.095-.183l-.065-.023-.013-.143c-.04.02-.081.039-.122.057l-.043.019-.043-.019c-.09-.039-.18-.084-.266-.132L408.5,252.929V207.94a3.954,3.954,0,0,1,3.958-3.94h74.025a3.954,3.954,0,0,1,3.958,3.94v45.046l-.055.031-39.206,21.946a3.383,3.383,0,0,1-1.646.425Z" transform="translate(-389.459 -203.894)" fill="#fff"/>
        <path id="Path_19497" data-name="Path 19497" d="M449.142,275.1a3.407,3.407,0,0,1-1.13-.189l-.13-.045-.006-.061-.072.031-.086-.038c-.093-.041-.186-.087-.276-.137L408,252.6V207.547a4.06,4.06,0,0,1,4.065-4.047H486.09a4.06,4.06,0,0,1,4.065,4.047v45.108l-39.315,22.007A3.49,3.49,0,0,1,449.142,275.1Zm-.859-.549a3.113,3.113,0,0,0,2.348-.261l39.1-21.884V207.547a3.633,3.633,0,0,0-3.637-3.621H412.065a3.633,3.633,0,0,0-3.637,3.621v44.8l2.565,1.434,36.66,20.508q.075.042.152.079.077-.037.152-.079l.288-.162Z" transform="translate(-389.066 -203.5)" fill="#3f3d56"/>
        <path id="Path_19498" data-name="Path 19498" d="M441.777,384.276l-15.526,8.69-2.674,1.5-39.206,21.946a3.273,3.273,0,0,1-1.594.411,3.2,3.2,0,0,1-1.059-.177,2.583,2.583,0,0,1-.278-.107q-.132-.057-.257-.128L344.523,395.9l-2.674-1.5-18.168-10.164a.214.214,0,1,1,.21-.373l17.959,10.046,2.674,1.5,36.869,20.625a2.805,2.805,0,0,0,.381.177c.056.021.113.04.171.058a2.849,2.849,0,0,0,2.216-.234l39.415-22.061,2.674-1.5,15.316-8.573a.213.213,0,1,1,.21.371Z" transform="translate(-322.701 -345.432)" fill="#3f3d56"/>
        <path id="Path_19499" data-name="Path 19499" d="M455.277,256.908h-5.991a1.7,1.7,0,1,1,0-3.408h5.991a1.7,1.7,0,1,1,0,3.408Z" transform="translate(-420.174 -242.851)" fill="#68119a"/>
        <path id="Path_19500" data-name="Path 19500" d="M462.337,283.908H449.287a1.7,1.7,0,1,1,0-3.408h13.051a1.7,1.7,0,1,1,0,3.408Z" transform="translate(-420.174 -264.1)" fill="#e6e6e6"/>
        <path id="Path_19501" data-name="Path 19501" d="M544.724,355.908H507.712a1.7,1.7,0,1,1,0-3.408h37.013a1.7,1.7,0,1,1,0,3.408Z" transform="translate(-466.099 -320.766)" fill="#68119a"/>
        <path id="Path_19502" data-name="Path 19502" d="M534.784,386.908H490.712a1.7,1.7,0,1,1,0-3.408h44.073a1.7,1.7,0,1,1,0,3.408Z" transform="translate(-452.736 -345.163)" fill="#e6e6e6"/>
        <path id="Path_19503" data-name="Path 19503" d="M534.784,416.908H490.712a1.7,1.7,0,1,1,0-3.408h44.073a1.7,1.7,0,1,1,0,3.408Z" transform="translate(-452.736 -368.774)" fill="#e6e6e6"/>
      </g>
    </g>
    <ellipse id="Ellipse_237" data-name="Ellipse 237" cx="26" cy="26.381" rx="26" ry="26.381" transform="translate(-1426 5297.228)" fill="#18d9c5"/>
    <path id="Path_19504" data-name="Path 19504" d="M-1034.382,5400.167l6.884,6.853,14.722-14.656" transform="translate(-376.524 -76.172)" fill="none" stroke="#fff" stroke-linecap="round" stroke-width="5"/>
  </g>
</svg>
