<svg xmlns="http://www.w3.org/2000/svg" width="16" height="16" viewBox="0 0 16 16">
  <g id="info-icon" transform="translate(-6083 732)">
    <circle id="Ellipse_250" data-name="Ellipse 250" cx="8" cy="8" r="8" transform="translate(6083 -732)" fill="#c4c4c4"/>
    <path id="Path_19771" data-name="Path 19771" d="M.369-7.1a2.731,2.731,0,0,1,.9-2.075,3.5,3.5,0,0,1,2.42-.783,3.589,3.589,0,0,1,2.352.735,2.355,2.355,0,0,1,.9,1.911,2.393,2.393,0,0,1-.362,1.323,3.166,3.166,0,0,1-1.1.995,3.22,3.22,0,0,0-.923.711,1.318,1.318,0,0,0-.239.82V-3.1H2.5l-.014-.4A2.224,2.224,0,0,1,2.71-4.8a2.684,2.684,0,0,1,1.008-.937,3.331,3.331,0,0,0,.906-.711,1.271,1.271,0,0,0,.243-.8,1.024,1.024,0,0,0-.359-.807,1.374,1.374,0,0,0-.94-.314,1.32,1.32,0,0,0-.95.345,1.334,1.334,0,0,0-.4.926ZM4.225-.14a1.111,1.111,0,0,1-.793.311,1.1,1.1,0,0,1-.79-.311A1.015,1.015,0,0,1,2.317-.9a1.015,1.015,0,0,1,.325-.762,1.1,1.1,0,0,1,.79-.311,1.111,1.111,0,0,1,.793.311A1.01,1.01,0,0,1,4.553-.9,1.01,1.01,0,0,1,4.225-.14Z" transform="translate(6087.631 -719.047)" fill="#fff"/>
  </g>
</svg>
