<svg xmlns="http://www.w3.org/2000/svg" width="24" height="24" viewBox="0 0 24 24">
  <g id="instagram-icon" transform="translate(-14422 -474)">
    <rect id="Rectangle_1289" data-name="Rectangle 1289" width="24" height="24" transform="translate(14422 474)" fill="none"/>
    <g id="instagram_" data-name="instagram " transform="translate(14425 477)">
      <g id="Group_53" data-name="Group 53" transform="translate(0)">
        <path id="Path_75" data-name="Path 75" d="M103.416,355.427c2.483,0,2.777.009,3.758.054a5.136,5.136,0,0,1,1.726.32,3.083,3.083,0,0,1,1.765,1.765,5.144,5.144,0,0,1,.32,1.726c.044.98.054,1.274.054,3.758s-.009,2.777-.054,3.758a5.144,5.144,0,0,1-.32,1.726A3.077,3.077,0,0,1,108.9,370.3a5.149,5.149,0,0,1-1.726.32c-.981.044-1.274.054-3.758.054s-2.777-.01-3.758-.054a5.145,5.145,0,0,1-1.726-.32,3.077,3.077,0,0,1-1.765-1.765,5.144,5.144,0,0,1-.32-1.726c-.044-.98-.054-1.274-.054-3.758s.009-2.777.054-3.758a5.144,5.144,0,0,1,.32-1.726,3.083,3.083,0,0,1,1.765-1.765,5.131,5.131,0,0,1,1.726-.32c.981-.045,1.274-.054,3.758-.054m0-1.676c-2.525,0-2.842.011-3.834.056a6.809,6.809,0,0,0-2.257.433,4.75,4.75,0,0,0-2.719,2.719,6.813,6.813,0,0,0-.433,2.257c-.045.992-.056,1.309-.056,3.834s.011,2.842.056,3.834a6.81,6.81,0,0,0,.433,2.257,4.754,4.754,0,0,0,2.719,2.72,6.83,6.83,0,0,0,2.257.432c.992.045,1.309.056,3.834.056s2.842-.011,3.834-.056a6.83,6.83,0,0,0,2.257-.432,4.758,4.758,0,0,0,2.72-2.72,6.83,6.83,0,0,0,.432-2.257c.045-.992.056-1.309.056-3.834s-.011-2.842-.056-3.834a6.834,6.834,0,0,0-.432-2.257,4.753,4.753,0,0,0-2.72-2.719,6.809,6.809,0,0,0-2.257-.433c-.992-.045-1.309-.056-3.834-.056" transform="translate(-94.117 -353.751)" fill="#68119a"/>
        <path id="Path_76" data-name="Path 76" d="M105.217,360.076a4.775,4.775,0,1,0,4.775,4.775,4.776,4.776,0,0,0-4.775-4.775m0,7.875a3.1,3.1,0,1,1,3.1-3.1,3.1,3.1,0,0,1-3.1,3.1" transform="translate(-95.918 -355.552)" fill="#68119a"/>
        <path id="Path_77" data-name="Path 77" d="M114.731,359.368a1.116,1.116,0,1,1-1.116-1.116,1.116,1.116,0,0,1,1.116,1.116" transform="translate(-99.352 -355.033)" fill="#68119a"/>
      </g>
    </g>
  </g>
</svg>
