<svg xmlns="http://www.w3.org/2000/svg" width="48" height="48" viewBox="0 0 48 48">
  <g id="linked-logo" transform="translate(-4232 105)">
    <circle id="Ellipse_137" data-name="Ellipse 137" cx="24" cy="24" r="24" transform="translate(4232 -105)" fill="#007aaa"/>
    <g id="linkedin-social-media-svgrepo-com" transform="translate(4244 -93)">
      <path id="Path_19402" data-name="Path 19402" d="M2.908,5.424a2.907,2.907,0,1,1,0,5.814,2.907,2.907,0,1,1,0-5.814" transform="translate(0 -5.424)" fill="#fff"/>
      <path id="Path_19403" data-name="Path 19403" d="M12.118,180.518H8.8a.833.833,0,0,1-.831-.831V165.152a.8.8,0,0,1,.789-.831h3.364a.833.833,0,0,1,.831.831v14.577a.825.825,0,0,1-.831.789" transform="translate(-7.59 -156.846)" fill="#fff"/>
      <path id="Path_19404" data-name="Path 19404" d="M191.469,160.975a5.321,5.321,0,0,0-5.357-5.482h-.872a5.057,5.057,0,0,0-4.153,2.077l-.415.415v-1.661a.534.534,0,0,0-.415-.415H176.1a.442.442,0,0,0-.415.374v15.491c0,.166.249.332.415.332h4.568c.166,0,.415-.166.415-.332V162.8a2.762,2.762,0,0,1,4.734-2.035,2.733,2.733,0,0,1,.706,1.993v8.929a.534.534,0,0,0,.415.415h4.153a.534.534,0,0,0,.415-.415V160.975Z" transform="translate(-167.422 -148.433)" fill="#fff"/>
    </g>
  </g>
</svg>
