<svg xmlns="http://www.w3.org/2000/svg" width="103.772" height="29.849" viewBox="0 0 103.772 29.849">
  <g id="Group_40129" data-name="Group 40129" transform="translate(11262 10347.392)">
    <path id="Path_19778" data-name="Path 19778" d="M1.719,0V-14.373H4.351v6.542h.043l5.425-6.542h3.266L7.09-7.251,13.578,0H10.205L4.394-6.488H4.351V0ZM20.762-1.106h-.043a4.85,4.85,0,0,1-.516.462,4.848,4.848,0,0,1-.687.446,4.017,4.017,0,0,1-.859.338,3.867,3.867,0,0,1-1.021.129A4.078,4.078,0,0,1,16.25.038a3.132,3.132,0,0,1-1.106-.666,3.09,3.09,0,0,1-.725-1.053,3.488,3.488,0,0,1-.263-1.38,3.561,3.561,0,0,1,.306-1.5,3.207,3.207,0,0,1,.854-1.128,3.776,3.776,0,0,1,1.311-.7,5.563,5.563,0,0,1,1.687-.242,8.375,8.375,0,0,1,1.246.086,8.7,8.7,0,0,1,1,.2v-.419a2.036,2.036,0,0,0-.124-.7,1.578,1.578,0,0,0-.4-.6,1.955,1.955,0,0,0-.714-.419,3.242,3.242,0,0,0-1.074-.156,7.111,7.111,0,0,0-1.547.172,12.15,12.15,0,0,0-1.676.516V-9.947a8.363,8.363,0,0,1,1.665-.526,9.612,9.612,0,0,1,1.848-.193,6.421,6.421,0,0,1,1.993.279,4.185,4.185,0,0,1,1.429.768,3.1,3.1,0,0,1,.859,1.155,3.651,3.651,0,0,1,.285,1.45v3.921q0,1.031.021,1.772T23.168,0h-2.3Zm-.2-3.33q-.365-.086-.838-.156a6.533,6.533,0,0,0-.956-.07,2.584,2.584,0,0,0-1.477.371,1.278,1.278,0,0,0-.542,1.133,1.44,1.44,0,0,0,.124.618,1.228,1.228,0,0,0,.333.435,1.419,1.419,0,0,0,.489.258,2,2,0,0,0,.591.086,2.554,2.554,0,0,0,.73-.1,3.352,3.352,0,0,0,.634-.258,3.073,3.073,0,0,0,.521-.349,3.631,3.631,0,0,0,.392-.376ZM29.9.269a5.645,5.645,0,0,1-2.6-.532A3.721,3.721,0,0,1,25.744-1.7a3.845,3.845,0,0,1-.414-1.063A5.724,5.724,0,0,1,25.2-4.05v-6.359h2.546v6.091a4.756,4.756,0,0,0,.075.908,2.347,2.347,0,0,0,.226.661,1.632,1.632,0,0,0,.73.7,2.546,2.546,0,0,0,1.128.231,2.492,2.492,0,0,0,1.176-.258,1.651,1.651,0,0,0,.736-.784,3.262,3.262,0,0,0,.247-1.407v-6.145h2.546V-4.05a4.7,4.7,0,0,1-.44,2.138,3.566,3.566,0,0,1-.639.9,3.743,3.743,0,0,1-.924.688,4.87,4.87,0,0,1-1.2.44A6.643,6.643,0,0,1,29.9.269ZM43.154-13.492q-.419-.107-.865-.177a5.46,5.46,0,0,0-.843-.07,2.6,2.6,0,0,0-.763.1,1.311,1.311,0,0,0-.564.338,1.5,1.5,0,0,0-.349.612,3.073,3.073,0,0,0-.118.913v1.364h2.89v2.095h-2.89V0H37.106V-8.314H35.345v-2.095h1.762v-1.235a5.214,5.214,0,0,1,.306-1.885,3.444,3.444,0,0,1,.854-1.3,3.421,3.421,0,0,1,1.289-.752,5.17,5.17,0,0,1,1.611-.242,6.3,6.3,0,0,1,1.069.091,6.316,6.316,0,0,1,.918.22Zm5.4,11.709a8.432,8.432,0,0,0,1.547-.15,11.97,11.97,0,0,0,1.633-.43v2.03A7.622,7.622,0,0,1,50.22.075,11.346,11.346,0,0,1,48.1.269,7.59,7.59,0,0,1,46-.016a4.568,4.568,0,0,1-1.735-.918,4.421,4.421,0,0,1-1.176-1.644,6.179,6.179,0,0,1-.435-2.449,6.905,6.905,0,0,1,.408-2.481,5.05,5.05,0,0,1,1.1-1.762,4.509,4.509,0,0,1,1.574-1.047,4.954,4.954,0,0,1,1.832-.349,5.322,5.322,0,0,1,1.821.3,3.658,3.658,0,0,1,1.439.945,4.418,4.418,0,0,1,.945,1.66,7.615,7.615,0,0,1,.338,2.4q-.011.537-.032.913H45.257a3.12,3.12,0,0,0,.322,1.23,2.37,2.37,0,0,0,.7.827,2.9,2.9,0,0,0,1.015.462A5.173,5.173,0,0,0,48.555-1.783Zm-1.021-6.9a1.993,1.993,0,0,0-.859.177,2.017,2.017,0,0,0-.65.483,2.359,2.359,0,0,0-.435.714,3.442,3.442,0,0,0-.215.87h4.093a2.989,2.989,0,0,0-.124-.87,2.14,2.14,0,0,0-.365-.714,1.728,1.728,0,0,0-.6-.483A1.887,1.887,0,0,0,47.534-8.68Zm10.89,5.661a.8.8,0,0,0-.188-.548,1.483,1.483,0,0,0-.5-.36,4.355,4.355,0,0,0-.714-.252q-.4-.107-.843-.215A10.772,10.772,0,0,1,55.1-4.743a3.267,3.267,0,0,1-.908-.521,2.31,2.31,0,0,1-.623-.811,2.791,2.791,0,0,1-.231-1.2,3.41,3.41,0,0,1,.312-1.509A3,3,0,0,1,54.5-9.84a3.587,3.587,0,0,1,1.235-.623,5.315,5.315,0,0,1,1.488-.2,9.815,9.815,0,0,1,1.794.156,9.472,9.472,0,0,1,1.515.4v2.073q-.354-.118-.747-.22t-.795-.177q-.4-.075-.8-.124a6.242,6.242,0,0,0-.752-.048,2.908,2.908,0,0,0-.763.086,1.5,1.5,0,0,0-.5.231.872.872,0,0,0-.279.333.933.933,0,0,0-.086.392.876.876,0,0,0,.188.58,1.333,1.333,0,0,0,.521.365,4.835,4.835,0,0,0,.7.231l.709.177q.537.129,1.074.312a3.371,3.371,0,0,1,.967.51,2.526,2.526,0,0,1,.7.849,2.838,2.838,0,0,1,.274,1.327A3.349,3.349,0,0,1,60.6-1.676a3.033,3.033,0,0,1-.929,1.09,4.088,4.088,0,0,1-1.429.645,7.5,7.5,0,0,1-1.832.209A9.228,9.228,0,0,1,54.638.113a5.928,5.928,0,0,1-1.305-.392V-2.331a8.16,8.16,0,0,0,1.547.424,8.441,8.441,0,0,0,1.321.113,5.23,5.23,0,0,0,.881-.07,2.464,2.464,0,0,0,.7-.22,1.31,1.31,0,0,0,.467-.381A.9.9,0,0,0,58.424-3.019Z" transform="translate(-11235.494 -10322.5)" fill="#68119a"/>
    <path id="Path_19779" data-name="Path 19779" d="M1.047-1.695H2.755V0H1.047ZM8.8-.133a3.8,3.8,0,0,1-.7.206,4.269,4.269,0,0,1-.87.086,3.95,3.95,0,0,1-1.244-.19A2.809,2.809,0,0,1,4.977-.609,2.679,2.679,0,0,1,4.3-1.59,3.584,3.584,0,0,1,4.05-2.977,3.694,3.694,0,0,1,4.336-4.5a2.955,2.955,0,0,1,.74-1.031A2.934,2.934,0,0,1,6.1-6.116,3.565,3.565,0,0,1,7.218-6.3a4.208,4.208,0,0,1,.793.073,3.646,3.646,0,0,1,.692.2v1.225A3.481,3.481,0,0,0,8.11-5a2.983,2.983,0,0,0-.676-.073,2.155,2.155,0,0,0-.692.111,1.561,1.561,0,0,0-.584.352,1.676,1.676,0,0,0-.4.638,2.72,2.72,0,0,0-.149.955,2.505,2.505,0,0,0,.114.765,1.728,1.728,0,0,0,.333.613,1.61,1.61,0,0,0,.559.409,1.914,1.914,0,0,0,.8.156,3.147,3.147,0,0,0,.749-.083,4.643,4.643,0,0,0,.635-.2Zm2.609-6.551q0,.476-.016.784a5.56,5.56,0,0,1-.054.555h.025A2.628,2.628,0,0,1,11.69-5.7a2.271,2.271,0,0,1,.425-.308,2.382,2.382,0,0,1,.527-.213,2.412,2.412,0,0,1,.651-.083,2.9,2.9,0,0,1,.594.06,2.171,2.171,0,0,1,.54.187,1.822,1.822,0,0,1,.457.33,1.8,1.8,0,0,1,.346.482,2.067,2.067,0,0,1,.178.546,4.107,4.107,0,0,1,.057.743V0h-1.5V-3.751a3.477,3.477,0,0,0-.025-.467,1.078,1.078,0,0,0-.089-.314.785.785,0,0,0-.381-.394A1.334,1.334,0,0,0,12.9-5.04a1.712,1.712,0,0,0-.809.209,2.263,2.263,0,0,0-.682.6V0H9.9V-9.191h1.5Z" transform="translate(-11173.691 -10322.278)" fill="#18d9c5"/>
    <g id="Group_40128" data-name="Group 40128">
      <path id="Path_18734" data-name="Path 18734" d="M0,29.92H8.375v5.333L.15,48.961Z" transform="translate(-11262 -10368.998)" fill="#18d9c5"/>
      <path id="Path_18735" data-name="Path 18735" d="M13.681,30.1H23.05L10.039,51.585H.72Z" transform="translate(-11262.52 -10369.128)" fill="#68119a"/>
      <path id="Path_18736" data-name="Path 18736" d="M45.578,74.34l-5.558,9.2H51.186Z" transform="translate(-11290.903 -10401.08)" fill="#18d9c5"/>
      <path id="Path_18737" data-name="Path 18737" d="M29.564,7.184A.861.861,0,0,1,28.7,6.32a4.6,4.6,0,0,0-9.205,0,.864.864,0,1,1-1.728,0,6.33,6.33,0,1,1,12.659,0,.864.864,0,0,1-.865.864Z" transform="translate(-11274.834 -10347.382)" fill="#18d9c5"/>
    </g>
  </g>
</svg>
