<svg xmlns="http://www.w3.org/2000/svg" width="24" height="24" viewBox="0 0 24 24">
  <g id="money" transform="translate(0 -0.006)">
    <g id="Group_40255" data-name="Group 40255" transform="translate(0.001 11.236)">
      <g id="Group_40254" data-name="Group 40254" transform="translate(0)">
        <path id="Path_19890" data-name="Path 19890" d="M.3,238.575a.465.465,0,0,0-.276.6l.292.8,2.224-2.224Z" transform="translate(-0.001 -237.75)" fill="#18d9c5"/>
      </g>
    </g>
    <g id="Group_40257" data-name="Group 40257" transform="translate(2.409 20.016)">
      <g id="Group_40256" data-name="Group 40256">
        <path id="Path_19891" data-name="Path 19891" d="M55.257,420.513,56.6,424.2a.461.461,0,0,0,.241.262.467.467,0,0,0,.2.044.456.456,0,0,0,.161-.029l1.478-.545Z" transform="translate(-55.257 -420.513)" fill="#18d9c5"/>
      </g>
    </g>
    <g id="Group_40259" data-name="Group 40259" transform="translate(14.094 12.658)">
      <g id="Group_40258" data-name="Group 40258">
        <path id="Path_19892" data-name="Path 19892" d="M294.661,255.938l-1.533-4.214L289.45,255.4l1.823-.672a.465.465,0,0,1,.322.872l-2.316.854a.465.465,0,0,1-.6-.275s0-.006,0-.008l-3.9,3.9,9.6-3.538A.464.464,0,0,0,294.661,255.938Z" transform="translate(-284.783 -251.724)" fill="#18d9c5"/>
      </g>
    </g>
    <g id="Group_40261" data-name="Group 40261" transform="translate(0.001 0.006)">
      <g id="Group_40260" data-name="Group 40260" transform="translate(0 0)">
        <path id="Path_19893" data-name="Path 19893" d="M23.872,8.152l-8-8a.5.5,0,0,0-.707,0l-15,15a.5.5,0,0,0,0,.707l8,8a.5.5,0,0,0,.353.147.5.5,0,0,0,.354-.146l15-15A.5.5,0,0,0,23.872,8.152Zm-18,5.708-2,2a.5.5,0,0,1-.708-.707l2-2a.5.5,0,0,1,.708.707Zm8.635.635a1.887,1.887,0,0,1-1.37.524,4.131,4.131,0,0,1-2.781-1.328,4.581,4.581,0,0,1-1.249-2.128A2.089,2.089,0,0,1,9.552,9.54a2.083,2.083,0,0,1,2.023-.445A4.573,4.573,0,0,1,13.7,10.344C15.092,11.732,15.446,13.556,14.507,14.495ZM20.872,8.86l-2,2a.5.5,0,0,1-.708-.707l2-2a.5.5,0,0,1,.708.707Z" transform="translate(-0.019 -0.006)" fill="#18d9c5"/>
      </g>
    </g>
  </g>
</svg>
