<svg xmlns="http://www.w3.org/2000/svg" width="142" height="142" viewBox="0 0 142 142">
  <g id="no-ads-icon" transform="translate(2616 6416)">
    <circle id="Ellipse_260" data-name="Ellipse 260" cx="71" cy="71" r="71" transform="translate(-2616 -6416)" fill="#fff"/>
    <path id="Intersection_2" data-name="Intersection 2" d="M27,126.726V50a3,3,0,0,1,3-3h82a3,3,0,0,1,3,3v76.726a71.013,71.013,0,0,1-88,0Z" transform="translate(-2616 -6416)" fill="#d1e2fc"/>
    <g id="Group_40166" data-name="Group 40166" transform="translate(0 -8)">
      <g id="Group_40165" data-name="Group 40165">
        <rect id="Rectangle_1371" data-name="Rectangle 1371" width="40" height="20" rx="2" transform="translate(-2584 -6355)" fill="#fff"/>
        <rect id="Rectangle_1372" data-name="Rectangle 1372" width="78" height="8" rx="1" transform="translate(-2584 -6325)" fill="#fff"/>
        <rect id="Rectangle_1373" data-name="Rectangle 1373" width="78" height="8" rx="1" transform="translate(-2584 -6311)" fill="#fff" opacity="0.8"/>
        <rect id="Rectangle_1374" data-name="Rectangle 1374" width="78" height="8" rx="1" transform="translate(-2584 -6297)" fill="#fff" opacity="0.6"/>
        <rect id="Rectangle_1375" data-name="Rectangle 1375" width="32" height="4" rx="1" transform="translate(-2539 -6355)" fill="#fff"/>
        <rect id="Rectangle_1376" data-name="Rectangle 1376" width="32" height="4" rx="1" transform="translate(-2539 -6348)" fill="#fff"/>
      </g>
      <rect id="Rectangle_1377" data-name="Rectangle 1377" width="32" height="4" rx="1" transform="translate(-2539 -6339)" fill="#fff"/>
    </g>
  </g>
</svg>
