<svg xmlns="http://www.w3.org/2000/svg" width="142" height="142" viewBox="0 0 142 142">
  <g id="no-messages-icons" transform="translate(-117 -274)">
    <circle id="Ellipse_260" data-name="Ellipse 260" cx="71" cy="71" r="71" transform="translate(117 274)" fill="#fff"/>
    <path id="Intersection_2" data-name="Intersection 2" d="M27,126.726V56a9,9,0,0,1,9-9h70a9,9,0,0,1,9,9v70.726a71.013,71.013,0,0,1-88,0Z" transform="translate(117 274)" fill="#c47aef"/>
    <g id="Group_40171" data-name="Group 40171" transform="translate(3668 8425)">
      <path id="Path_19837" data-name="Path 19837" d="M80,110.75V127a3.25,3.25,0,0,0,3.25,3.25H122.42l16.081,13v-52a3.25,3.25,0,0,0-3.25-3.25H119v19.5a3.25,3.25,0,0,1-3.25,3.25Z" transform="translate(-3577.5 -8167.25)" fill="none"/>
      <path id="Path_19838" data-name="Path 19838" d="M80,105.2v12.285a2.457,2.457,0,0,0,2.457,2.457H112.07l12.157,9.828V90.457A2.457,2.457,0,0,0,121.77,88H109.485" transform="translate(-3572.742 -8162.889)" fill="none" stroke="#fff" stroke-linecap="round" stroke-linejoin="round" stroke-width="4"/>
      <path id="Path_19839" data-name="Path 19839" d="M44.157,71.941,32,81.769V42.457A2.457,2.457,0,0,1,34.458,40H73.77a2.457,2.457,0,0,1,2.457,2.457V69.484a2.457,2.457,0,0,1-2.457,2.457Z" transform="translate(-3539.484 -8129.631)" fill="none" stroke="#fff" stroke-linecap="round" stroke-linejoin="round" stroke-width="4"/>
      <path id="Path_19840" data-name="Path 19840" d="M1.836,12.961a13.261,13.261,0,0,1,1.633.619Q14.682,20.01,25.88,26.464a1.929,1.929,0,0,1,1.174,2.227,3.241,3.241,0,0,1-1.453,1.75,2.376,2.376,0,0,1-1.9-.243c-7.491-4.259-14.952-8.57-22.42-12.868A1.961,1.961,0,0,1,.143,14.844c.319-.76,1.149-1.3,1.693-1.883" transform="translate(-3544.082 -8141.797)" fill="#9efcf2"/>
      <path id="Path_19841" data-name="Path 19841" d="M15.871,79.542c2.4,0,4.81-.012,7.215,0,1.6.011,2.578.857,2.578,2.177S24.682,83.9,23.084,83.9q-7.214.02-14.429,0c-1.6,0-2.577-.855-2.576-2.179s.973-2.165,2.577-2.176c2.4-.016,4.81,0,7.215,0" transform="translate(-3556.179 -8179.16)" fill="#9efcf2"/>
      <path id="Path_19842" data-name="Path 19842" d="M79.32,13.337a8.388,8.388,0,0,1-1.679,1.792,1.878,1.878,0,0,1-2.439-.589c-1.015-1.221-1.982-2.481-2.97-3.724C70.4,8.506,68.552,6.2,66.732,3.885c-1.019-1.3-.987-2.519.038-3.371,1.051-.874,2.335-.625,3.39.7q4.075,5.107,8.118,10.241a14.832,14.832,0,0,1,1.042,1.886" transform="matrix(0.951, 0.309, -0.309, 0.951, -3572.937, -8156.164)" fill="#9efcf2"/>
      <g id="Group_40169" data-name="Group 40169" transform="translate(-3489.07 -8082.188)">
        <path id="Path_19793" data-name="Path 19793" d="M120.561,59.738a4.1,4.1,0,0,1,4.414,4.364,5.684,5.684,0,0,1-1.058,3.014c-.35.491-.718.973-1.112,1.435a5.513,5.513,0,0,0-1.424,3.01,1.094,1.094,0,1,1-2.168-.257,5.979,5.979,0,0,1,1.152-3.054c.442-.61.926-1.2,1.4-1.789a4.213,4.213,0,0,0,1-2.43,2,2,0,0,0-1.962-2.286,2.381,2.381,0,0,0-2.645,1.962c-.03.229-.018.463-.061.689a1.076,1.076,0,0,1-1.145.885,1.033,1.033,0,0,1-1.018-1,4.394,4.394,0,0,1,4.627-4.544" transform="translate(-115.924 -59.738)" fill="#fff"/>
        <path id="Path_19794" data-name="Path 19794" d="M133.157,143.948a1.335,1.335,0,1,1-1.349,1.342,1.323,1.323,0,0,1,1.349-1.342" transform="translate(-128.892 -129.687)" fill="#fff"/>
      </g>
    </g>
  </g>
</svg>
