<svg xmlns="http://www.w3.org/2000/svg" width="24" height="24" viewBox="0 0 24 24">
  <g id="password-icon" transform="translate(3102 -9008)">
    <rect id="Rectangle_1269" data-name="Rectangle 1269" width="24" height="24" transform="translate(-3102 9008)" fill="none"/>
    <path id="Icon_material-lock" data-name="Icon material-lock" d="M18.569,7.785h-.9v-1.8a4.489,4.489,0,0,0-8.978,0v1.8H7.8A1.8,1.8,0,0,0,6,9.58v8.978a1.8,1.8,0,0,0,1.8,1.8H18.569a1.8,1.8,0,0,0,1.8-1.8V9.58A1.8,1.8,0,0,0,18.569,7.785Zm-5.387,8.08a1.8,1.8,0,1,1,1.8-1.8A1.8,1.8,0,0,1,13.182,15.865Zm2.783-8.08H10.4v-1.8a2.783,2.783,0,1,1,5.566,0Z" transform="translate(-3103 9009.5)" fill="#272727"/>
  </g>
</svg>
