<svg xmlns="http://www.w3.org/2000/svg" width="85" height="105.761" viewBox="0 0 85 105.761">
  <g id="phone-verification" transform="translate(8735 13233.761)">
    <rect id="Rectangle_1358" data-name="Rectangle 1358" width="57" height="96" rx="11" transform="translate(-8735 -13224)" fill="#68119a"/>
    <rect id="Rectangle_1359" data-name="Rectangle 1359" width="51" height="88" rx="7" transform="translate(-8732 -13220)" fill="#fff"/>
    <rect id="Rectangle_1360" data-name="Rectangle 1360" width="15" height="2" rx="1" transform="translate(-8715 -13216)" fill="#68119a"/>
    <g id="Group_40153" data-name="Group 40153" transform="translate(-2 -15.989)">
      <ellipse id="Ellipse_253" data-name="Ellipse 253" cx="26" cy="26.381" rx="26" ry="26.381" transform="translate(-8700 -13217.772)" fill="#18d9c5"/>
      <path id="Path_19784" data-name="Path 19784" d="M-1034.382,5400.167l6.884,6.853,14.722-14.656" transform="translate(-7650.523 -18591.172)" fill="none" stroke="#fff" stroke-linecap="round" stroke-width="5"/>
    </g>
    <g id="Group_40155" data-name="Group 40155">
      <g id="Group_40154" data-name="Group 40154" transform="translate(0 14)">
        <rect id="Rectangle_1361" data-name="Rectangle 1361" width="41" height="15" rx="4" transform="translate(-8727 -13195)" fill="#68119a"/>
        <g id="Group_40152" data-name="Group 40152" transform="translate(1)">
          <path id="Path_19780" data-name="Path 19780" d="M5.7-9.73,6.482-8.3,4.76-7.7l1.722.588-.84,1.484L4.242-6.86l.35,1.82H2.954L3.29-6.86,1.9-5.614,1.036-7.126l1.722-.6L1.05-8.288l.8-1.442L3.3-8.512,2.94-10.36H4.606L4.242-8.512Z" transform="translate(-8724.036 -13179.64)" fill="#fff"/>
          <path id="Path_19781" data-name="Path 19781" d="M5.7-9.73,6.482-8.3,4.76-7.7l1.722.588-.84,1.484L4.242-6.86l.35,1.82H2.954L3.29-6.86,1.9-5.614,1.036-7.126l1.722-.6L1.05-8.288l.8-1.442L3.3-8.512,2.94-10.36H4.606L4.242-8.512Z" transform="translate(-8716.036 -13179.64)" fill="#fff"/>
          <path id="Path_19782" data-name="Path 19782" d="M5.7-9.73,6.482-8.3,4.76-7.7l1.722.588-.84,1.484L4.242-6.86l.35,1.82H2.954L3.29-6.86,1.9-5.614,1.036-7.126l1.722-.6L1.05-8.288l.8-1.442L3.3-8.512,2.94-10.36H4.606L4.242-8.512Z" transform="translate(-8707.036 -13179.64)" fill="#fff"/>
          <path id="Path_19783" data-name="Path 19783" d="M5.7-9.73,6.482-8.3,4.76-7.7l1.722.588-.84,1.484L4.242-6.86l.35,1.82H2.954L3.29-6.86,1.9-5.614,1.036-7.126l1.722-.6L1.05-8.288l.8-1.442L3.3-8.512,2.94-10.36H4.606L4.242-8.512Z" transform="translate(-8699.036 -13179.64)" fill="#fff"/>
        </g>
      </g>
      <path id="Polygon_3" data-name="Polygon 3" d="M6,0l6,10H0Z" transform="translate(-8712 -13157) rotate(180)" fill="#68119a"/>
    </g>
  </g>
</svg>
