<svg xmlns="http://www.w3.org/2000/svg" width="24" height="24" viewBox="0 0 24 24">
  <g id="pinterest-icon" transform="translate(-14449 -474)">
    <rect id="Rectangle_1290" data-name="Rectangle 1290" width="24" height="24" transform="translate(14449 474)" fill="none"/>
    <g id="pinterest" transform="translate(14454 477)">
      <path id="Path_85" data-name="Path 85" d="M98.414,414.377a.369.369,0,0,0,.538-.267c.048-.188.166-.664.218-.861a.518.518,0,0,0-.155-.6,3.1,3.1,0,0,1-.708-2.1,5.081,5.081,0,0,1,5.282-5.138c2.881,0,4.464,1.761,4.464,4.112,0,3.093-1.369,5.7-3.4,5.7a1.661,1.661,0,0,1-1.694-2.066,22.911,22.911,0,0,0,.948-3.807,1.437,1.437,0,0,0-1.447-1.611c-1.147,0-2.069,1.187-2.069,2.777a4.121,4.121,0,0,0,.343,1.7l-1.38,5.845a12.018,12.018,0,0,0-.032,4.077.143.143,0,0,0,.255.062,11.425,11.425,0,0,0,1.937-3.511c.132-.477.755-2.949.755-2.949a3.073,3.073,0,0,0,2.62,1.337c3.45,0,5.788-3.143,5.788-7.352,0-3.182-2.694-6.145-6.791-6.145-5.1,0-7.667,3.654-7.667,6.7C96.217,412.125,96.916,413.766,98.414,414.377Z" transform="translate(-96.217 -403.578)" fill="#68119a"/>
    </g>
  </g>
</svg>
