<svg xmlns="http://www.w3.org/2000/svg" width="64" height="64.133" viewBox="0 0 64 64.133">
  <g id="sell-stuff-icon" transform="translate(-4.746 -0.849)">
    <circle id="Ellipse_225" data-name="Ellipse 225" cx="30.5" cy="30.5" r="30.5" transform="translate(4.746 3.982)" fill="#ebf3ff"/>
    <path id="Path_19452" data-name="Path 19452" d="M33.562,9.3a.588.588,0,0,1-.335.525,5.824,5.824,0,0,0-3,3.343L29.9,14.21a.617.617,0,0,1-1.159,0l-.354-1.038a5.824,5.824,0,0,0-3-3.343.581.581,0,0,1,0-1.05,5.824,5.824,0,0,0,3-3.343L28.743,4.4a.617.617,0,0,1,1.159,0l.354,1.038a5.824,5.824,0,0,0,3,3.343A.586.586,0,0,1,33.562,9.3Z" transform="translate(-7.796 -1.22)" fill="#18d9c5"/>
    <path id="Path_19453" data-name="Path 19453" d="M99.562,78.3a.588.588,0,0,1-.335.525,5.824,5.824,0,0,0-3,3.343L95.9,83.21a.617.617,0,0,1-1.159,0l-.354-1.038a5.824,5.824,0,0,0-3-3.343.581.581,0,0,1,0-1.05,5.824,5.824,0,0,0,3-3.343l.354-1.038a.617.617,0,0,1,1.159,0l.354,1.038a5.824,5.824,0,0,0,3,3.343A.586.586,0,0,1,99.562,78.3Z" transform="translate(-33.537 -29.534)" fill="#18d9c5"/>
    <ellipse id="Ellipse_226" data-name="Ellipse 226" cx="2.207" cy="1.6" rx="2.207" ry="1.6" transform="translate(5.849 0.849)" fill="#00c99f"/>
    <ellipse id="Ellipse_227" data-name="Ellipse 227" cx="1.655" cy="2.133" rx="1.655" ry="2.133" transform="translate(65.435 5.115)" fill="#18d9c5"/>
    <ellipse id="Ellipse_228" data-name="Ellipse 228" cx="2.207" cy="1.6" rx="2.207" ry="1.6" transform="translate(61.021 61.649)" fill="#00c99f"/>
    <ellipse id="Ellipse_229" data-name="Ellipse 229" cx="2.207" cy="2.133" rx="2.207" ry="2.133" transform="translate(6.952 57.382)" fill="#18d9c5"/>
    <path id="Path_19454" data-name="Path 19454" d="M66.137,39.725,60.092,64.573a3.637,3.637,0,0,1-3.568,2.73H24.048a.6.6,0,0,1-.61-.537L21,39.643a.578.578,0,0,1,.158-.452A.62.62,0,0,1,21.608,39H65.527a.618.618,0,0,1,.482.224A.575.575,0,0,1,66.137,39.725Z" transform="translate(-6.212 -15.586)" fill="#68119a"/>
    <path id="Path_19455" data-name="Path 19455" d="M24.2,59.257a.577.577,0,0,1-.146.46.619.619,0,0,1-.464.2h-3.05a2.4,2.4,0,0,0-2.44,2.359,1.912,1.912,0,0,0,.043.419,28.488,28.488,0,0,1-3.019-3.119,6.113,6.113,0,0,1,5.032-3.2L16.04,24.538H13.57A30.468,30.468,0,0,1,16.486,21h.61a2.414,2.414,0,0,1,2.44,2.064Z" transform="translate(-3.316 -8.199)" fill="#8fa2ff"/>
    <path id="Path_19456" data-name="Path 19456" d="M60.989,96.769a1.8,1.8,0,0,1-1.83,1.769H31.332A30.854,30.854,0,0,1,25,95H59.159a1.853,1.853,0,0,1,1.446.69A1.732,1.732,0,0,1,60.989,96.769Z" transform="translate(-7.774 -38.565)" fill="#8fa2ff"/>
    <rect id="Rectangle_1255" data-name="Rectangle 1255" width="3.31" height="18.133" rx="1.655" transform="translate(25.711 28.582)" fill="#18d9c5"/>
    <rect id="Rectangle_1256" data-name="Rectangle 1256" width="3.31" height="18.133" rx="1.655" transform="translate(35.642 28.582)" fill="#18d9c5"/>
    <path id="Path_19457" data-name="Path 19457" d="M53.22,21H67.86a1.2,1.2,0,0,1,1.22,1.179v9.434H52V22.179A1.2,1.2,0,0,1,53.22,21Z" transform="translate(-18.304 -8.199)" fill="#008779"/>
    <rect id="Rectangle_1257" data-name="Rectangle 1257" width="2.207" height="18.133" rx="1.103" transform="translate(46.677 28.582)" fill="#18d9c5"/>
    <path id="Path_19458" data-name="Path 19458" d="M33.22,29h12.2a1.2,1.2,0,0,1,1.22,1.179V34.9H32V30.179A1.2,1.2,0,0,1,33.22,29Z" transform="translate(-10.504 -11.482)" fill="#a853d9"/>
    <rect id="Rectangle_1258" data-name="Rectangle 1258" width="2.207" height="10.667" transform="translate(46.677 12.582)" fill="#00c99f"/>
    <rect id="Rectangle_1259" data-name="Rectangle 1259" width="2.207" height="6.4" transform="translate(23.504 16.849)" fill="#68119a"/>
  </g>
</svg>
