<svg xmlns="http://www.w3.org/2000/svg" width="24" height="24" viewBox="0 0 24 24">
  <g id="settings-icon" transform="translate(-28 -162)">
    <rect id="Rectangle_1266" data-name="Rectangle 1266" width="24" height="24" transform="translate(28 162)" fill="none"/>
    <path id="Icon_material-settings" data-name="Icon material-settings" d="M21.284,14.44a7.184,7.184,0,0,0,0-2.042l2.2-1.719a.526.526,0,0,0,.125-.667l-2.084-3.6a.524.524,0,0,0-.636-.229L18.294,7.22A7.612,7.612,0,0,0,16.533,6.2l-.4-2.761A.508.508,0,0,0,15.627,3H11.459a.508.508,0,0,0-.511.438l-.4,2.761A8,8,0,0,0,8.792,7.22L6.2,6.178a.508.508,0,0,0-.636.229l-2.084,3.6a.514.514,0,0,0,.125.667L5.8,12.4a8.263,8.263,0,0,0-.073,1.021A8.263,8.263,0,0,0,5.8,14.44L3.6,16.159a.526.526,0,0,0-.125.667l2.084,3.6a.524.524,0,0,0,.636.229l2.594-1.042a7.612,7.612,0,0,0,1.761,1.021l.4,2.761a.508.508,0,0,0,.511.438h4.168a.508.508,0,0,0,.511-.438l.4-2.761a8,8,0,0,0,1.761-1.021l2.594,1.042a.508.508,0,0,0,.636-.229l2.084-3.6a.526.526,0,0,0-.125-.667l-2.2-1.719Zm-7.741,2.626a3.647,3.647,0,1,1,3.647-3.647A3.651,3.651,0,0,1,13.543,17.065Z" transform="translate(26.46 160.162)" fill="#272727"/>
  </g>
</svg>
