<svg xmlns="http://www.w3.org/2000/svg" width="48" height="48" viewBox="0 0 48 48">
  <g id="twitter-logo" transform="translate(-0.213 -0.212)">
    <rect id="Rectangle_1222" data-name="Rectangle 1222" width="48" height="48" rx="24" transform="translate(0.213 0.212)" fill="#1da1f2"/>
    <path id="Path_19407" data-name="Path 19407" d="M125.627,122.4a12.59,12.59,0,0,1-3.794,1.138,7.112,7.112,0,0,0,3.035-3.794,13.684,13.684,0,0,1-4.268,1.612,6.829,6.829,0,0,0-11.571,6.165A18.678,18.678,0,0,1,95.276,120.5a6.45,6.45,0,0,0,2.087,8.916,6.745,6.745,0,0,1-3.035-.664,6.891,6.891,0,0,0,5.311,6.544,6.531,6.531,0,0,1-3.035.095,7.034,7.034,0,0,0,6.355,4.742A12.635,12.635,0,0,1,93,142.886a18.874,18.874,0,0,0,29.307-16.977,11.728,11.728,0,0,0,3.32-3.509" transform="translate(-84.247 -108.051)" fill="#fff"/>
  </g>
</svg>
