<svg xmlns="http://www.w3.org/2000/svg" width="24" height="24" viewBox="0 0 24 24">
  <g id="twitter-icon" transform="translate(-14367 -474)">
    <rect id="Rectangle_1287" data-name="Rectangle 1287" width="24" height="24" transform="translate(14367 474)" fill="none"/>
    <g id="twitter_lite" data-name="twitter lite" transform="translate(14370 479)">
      <path id="Path_73" data-name="Path 73" d="M153.515,369.363a10.429,10.429,0,0,0,16.043-9.261,7.424,7.424,0,0,0,1.83-1.9,7.288,7.288,0,0,1-2.106.577,3.67,3.67,0,0,0,1.612-2.028,7.344,7.344,0,0,1-2.328.89,3.669,3.669,0,0,0-6.248,3.345,10.4,10.4,0,0,1-7.557-3.832,3.671,3.671,0,0,0,1.134,4.9,3.655,3.655,0,0,1-1.661-.459,3.671,3.671,0,0,0,2.941,3.642,3.659,3.659,0,0,1-1.655.062,3.668,3.668,0,0,0,3.425,2.547A7.371,7.371,0,0,1,153.515,369.363Z" transform="translate(-153.515 -356.485)" fill="#68119a"/>
    </g>
  </g>
</svg>
