<svg id="video-icon" xmlns="http://www.w3.org/2000/svg" width="19.277" height="26.113" viewBox="0 0 19.277 26.113">
  <path id="Icon_metro-file-video" data-name="Icon metro-file-video" d="M22.868,7.77a22.443,22.443,0,0,0-1.876-2.543A20.964,20.964,0,0,0,18.847,3c-1.11-.964-1.648-1.076-1.956-1.076H6.22A1.9,1.9,0,0,0,4.5,3.968V26a1.9,1.9,0,0,0,1.721,2.04H22.054A1.9,1.9,0,0,0,23.775,26V10.088a4.486,4.486,0,0,0-.908-2.319ZM20.018,6.381A21.514,21.514,0,0,1,21.58,8.456H18.268V4.531A20.262,20.262,0,0,1,20.018,6.381ZM22.4,26a.385.385,0,0,1-.344.408H6.22A.385.385,0,0,1,5.876,26V3.968A.385.385,0,0,1,6.22,3.56H16.891V9.272a.76.76,0,0,0,.688.816H22.4Z" transform="translate(-4.499 -1.928)" fill="#68119a"/>
  <path id="Polygon_2" data-name="Polygon 2" d="M5.914,1.3a1,1,0,0,1,1.679,0l4.916,7.6a1,1,0,0,1-.84,1.543H1.838A1,1,0,0,1,1,8.9Z" transform="translate(15.493 8.75) rotate(90)" fill="#68119a"/>
</svg>
