<svg xmlns="http://www.w3.org/2000/svg" width="191.584" height="70.119" viewBox="0 0 191.584 70.119">
  <g id="Group_39597" data-name="Group 39597" transform="translate(-91.404 -58.32)">
    <path id="Path_19501" data-name="Path 19501" d="M55.156,11.76,48.564,34H44.436L39.764,17.168,34.8,34l-4.1.032L24.4,11.76h3.872l4.608,18.112L37.876,11.76h4.1l4.64,18.016,4.64-18.016ZM74.324,24.752a11.405,11.405,0,0,1-.128,1.792H60.724a4.893,4.893,0,0,0,1.568,3.392,4.95,4.95,0,0,0,3.456,1.28,4.269,4.269,0,0,0,4.16-2.464h3.936a7.942,7.942,0,0,1-2.9,3.984,8.5,8.5,0,0,1-5.2,1.552,9,9,0,0,1-4.528-1.136,8.083,8.083,0,0,1-3.136-3.2,9.762,9.762,0,0,1-1.136-4.784,9.991,9.991,0,0,1,1.1-4.784,7.764,7.764,0,0,1,3.1-3.184,9.238,9.238,0,0,1,4.592-1.12A8.98,8.98,0,0,1,70.2,17.168a7.688,7.688,0,0,1,3.04,3.056A9.2,9.2,0,0,1,74.324,24.752ZM70.516,23.6a4.151,4.151,0,0,0-1.44-3.232,5.148,5.148,0,0,0-3.488-1.216,4.685,4.685,0,0,0-3.232,1.2,5.015,5.015,0,0,0-1.6,3.248Zm11.04-13.28V34H77.908V10.32ZM85.14,25.168a9.991,9.991,0,0,1,1.1-4.784A7.853,7.853,0,0,1,89.3,17.2a9.769,9.769,0,0,1,9.776.4,7.483,7.483,0,0,1,2.832,4.336H97.972a4.162,4.162,0,0,0-1.536-2.048,4.536,4.536,0,0,0-2.656-.736,4.417,4.417,0,0,0-3.568,1.584,6.7,6.7,0,0,0-1.328,4.432,6.768,6.768,0,0,0,1.328,4.448,4.4,4.4,0,0,0,3.568,1.6,4.049,4.049,0,0,0,4.192-2.784h3.936a7.88,7.88,0,0,1-2.88,4.272,8.5,8.5,0,0,1-5.248,1.584,8.742,8.742,0,0,1-4.48-1.136,7.962,7.962,0,0,1-3.056-3.2A9.991,9.991,0,0,1,85.14,25.168Zm28.064,9.12a9.03,9.03,0,0,1-4.512-1.136,8.16,8.16,0,0,1-3.168-3.2,9.653,9.653,0,0,1-1.152-4.784,9.468,9.468,0,0,1,1.184-4.768,8.178,8.178,0,0,1,3.232-3.2,9.908,9.908,0,0,1,9.152,0,8.178,8.178,0,0,1,3.232,3.2,9.468,9.468,0,0,1,1.184,4.768,9.271,9.271,0,0,1-1.216,4.768,8.42,8.42,0,0,1-3.312,3.216A9.546,9.546,0,0,1,113.2,34.288Zm0-3.168a5.429,5.429,0,0,0,2.64-.672,5.12,5.12,0,0,0,2-2.016,6.482,6.482,0,0,0,.768-3.264,6.616,6.616,0,0,0-.736-3.248,4.969,4.969,0,0,0-1.952-2,5.338,5.338,0,0,0-2.624-.672,5.249,5.249,0,0,0-2.608.672,4.8,4.8,0,0,0-1.9,2,6.863,6.863,0,0,0-.7,3.248,6.187,6.187,0,0,0,1.456,4.4A4.811,4.811,0,0,0,113.2,31.12Zm34.112-15.04a7.907,7.907,0,0,1,3.728.864,6.242,6.242,0,0,1,2.592,2.56,8.3,8.3,0,0,1,.944,4.1V34h-3.616V24.144a5.118,5.118,0,0,0-1.184-3.632,4.214,4.214,0,0,0-3.232-1.264,4.266,4.266,0,0,0-3.248,1.264,5.074,5.074,0,0,0-1.2,3.632V34h-3.616V24.144a5.118,5.118,0,0,0-1.184-3.632,4.214,4.214,0,0,0-3.232-1.264,4.266,4.266,0,0,0-3.248,1.264,5.074,5.074,0,0,0-1.2,3.632V34h-3.648V16.368h3.648v2.016a6.065,6.065,0,0,1,2.272-1.7,7.2,7.2,0,0,1,2.944-.608,7.837,7.837,0,0,1,3.776.9,6.125,6.125,0,0,1,2.56,2.592,5.913,5.913,0,0,1,2.5-2.544A7.381,7.381,0,0,1,147.316,16.08Zm28.064,8.672a11.406,11.406,0,0,1-.128,1.792H161.78a4.893,4.893,0,0,0,1.568,3.392,4.95,4.95,0,0,0,3.456,1.28,4.269,4.269,0,0,0,4.16-2.464H174.9a7.943,7.943,0,0,1-2.9,3.984,8.5,8.5,0,0,1-5.2,1.552,9,9,0,0,1-4.528-1.136,8.082,8.082,0,0,1-3.136-3.2A9.762,9.762,0,0,1,158,25.168a9.991,9.991,0,0,1,1.1-4.784,7.764,7.764,0,0,1,3.1-3.184,9.238,9.238,0,0,1,4.592-1.12,8.98,8.98,0,0,1,4.448,1.088,7.688,7.688,0,0,1,3.04,3.056A9.2,9.2,0,0,1,175.38,24.752ZM171.572,23.6a4.151,4.151,0,0,0-1.44-3.232,5.148,5.148,0,0,0-3.488-1.216,4.685,4.685,0,0,0-3.232,1.2,5.015,5.015,0,0,0-1.6,3.248Zm19.968-4.256V29.1A1.873,1.873,0,0,0,192,30.528a2.307,2.307,0,0,0,1.584.432h2.24V34h-2.88a5.551,5.551,0,0,1-3.776-1.152A4.748,4.748,0,0,1,187.86,29.1v-9.76h-2.08V16.368h2.08V11.984h3.68v4.384h4.288v2.976Zm15.3,14.944a9.03,9.03,0,0,1-4.512-1.136,8.161,8.161,0,0,1-3.168-3.2A9.653,9.653,0,0,1,198,25.168a9.468,9.468,0,0,1,1.184-4.768,8.178,8.178,0,0,1,3.232-3.2,9.908,9.908,0,0,1,9.152,0,8.178,8.178,0,0,1,3.232,3.2,9.468,9.468,0,0,1,1.184,4.768,9.271,9.271,0,0,1-1.216,4.768,8.42,8.42,0,0,1-3.312,3.216A9.546,9.546,0,0,1,206.836,34.288Zm0-3.168a5.429,5.429,0,0,0,2.64-.672,5.12,5.12,0,0,0,2-2.016,6.481,6.481,0,0,0,.768-3.264,6.616,6.616,0,0,0-.736-3.248,4.969,4.969,0,0,0-1.952-2,5.338,5.338,0,0,0-2.624-.672,5.249,5.249,0,0,0-2.608.672,4.8,4.8,0,0,0-1.9,2,6.863,6.863,0,0,0-.7,3.248,6.187,6.187,0,0,0,1.456,4.4A4.811,4.811,0,0,0,206.836,31.12Z" transform="translate(67 48)" fill="#272727"/>
    <g id="logo" transform="translate(-2.87 -234.07)">
      <path id="Path_19499" data-name="Path 19499" d="M2.813,0V-23.52H7.119v10.705h.07L16.066-23.52H21.41L11.6-11.865,22.219,0H16.7L7.189-10.617h-.07V0ZM33.974-1.811H33.9a7.936,7.936,0,0,1-.844.756,7.932,7.932,0,0,1-1.125.729,6.573,6.573,0,0,1-1.406.554,6.327,6.327,0,0,1-1.67.211A6.673,6.673,0,0,1,26.591.062a5.125,5.125,0,0,1-1.811-1.09,5.056,5.056,0,0,1-1.187-1.723,5.708,5.708,0,0,1-.431-2.259,5.827,5.827,0,0,1,.5-2.461,5.248,5.248,0,0,1,1.4-1.846,6.179,6.179,0,0,1,2.145-1.151,9.1,9.1,0,0,1,2.76-.4,13.7,13.7,0,0,1,2.039.141,14.245,14.245,0,0,1,1.635.334v-.686a3.331,3.331,0,0,0-.2-1.151,2.582,2.582,0,0,0-.65-.984,3.2,3.2,0,0,0-1.169-.686,5.305,5.305,0,0,0-1.758-.255,11.637,11.637,0,0,0-2.531.281,19.881,19.881,0,0,0-2.742.844v-3.252a13.685,13.685,0,0,1,2.725-.861,15.729,15.729,0,0,1,3.023-.316A10.506,10.506,0,0,1,33.6-17a6.848,6.848,0,0,1,2.338,1.257,5.077,5.077,0,0,1,1.406,1.89,5.975,5.975,0,0,1,.466,2.373v6.416q0,1.688.035,2.9T37.912,0H34.15ZM33.64-7.26q-.6-.141-1.371-.255A10.691,10.691,0,0,0,30.7-7.629a4.228,4.228,0,0,0-2.417.606A2.092,2.092,0,0,0,27.4-5.168a2.357,2.357,0,0,0,.2,1.011,2.009,2.009,0,0,0,.545.712,2.322,2.322,0,0,0,.8.422,3.269,3.269,0,0,0,.967.141,4.18,4.18,0,0,0,1.2-.167,5.484,5.484,0,0,0,1.037-.422A5.029,5.029,0,0,0,33-4.043a5.942,5.942,0,0,0,.642-.615ZM48.929.439a9.237,9.237,0,0,1-4.254-.87,6.089,6.089,0,0,1-2.549-2.347,6.292,6.292,0,0,1-.677-1.74,9.367,9.367,0,0,1-.22-2.109V-17.033H45.4v9.967a7.783,7.783,0,0,0,.123,1.485A3.84,3.84,0,0,0,45.888-4.5a2.671,2.671,0,0,0,1.2,1.151,4.166,4.166,0,0,0,1.846.378,4.077,4.077,0,0,0,1.925-.422,2.7,2.7,0,0,0,1.2-1.283,5.338,5.338,0,0,0,.4-2.3V-17.033h4.166V-6.627a7.688,7.688,0,0,1-.721,3.5,5.836,5.836,0,0,1-1.046,1.468A6.124,6.124,0,0,1,53.35-.536a7.97,7.97,0,0,1-1.969.721A10.871,10.871,0,0,1,48.929.439ZM70.616-22.078q-.686-.176-1.415-.29a8.935,8.935,0,0,0-1.38-.114,4.262,4.262,0,0,0-1.248.167,2.145,2.145,0,0,0-.923.554,2.461,2.461,0,0,0-.571,1,5.028,5.028,0,0,0-.193,1.494v2.232h4.729v3.428H64.885V0H60.719V-13.605H57.837v-3.428h2.883v-2.021a8.532,8.532,0,0,1,.5-3.085,5.636,5.636,0,0,1,1.4-2.127,5.6,5.6,0,0,1,2.109-1.23,8.46,8.46,0,0,1,2.637-.4,10.316,10.316,0,0,1,1.749.149,10.335,10.335,0,0,1,1.5.36Zm8.837,19.16a13.8,13.8,0,0,0,2.531-.246,19.587,19.587,0,0,0,2.672-.7V-.545a12.472,12.472,0,0,1-2.479.668,18.567,18.567,0,0,1-3.463.316,12.42,12.42,0,0,1-3.437-.466,7.475,7.475,0,0,1-2.839-1.5,7.234,7.234,0,0,1-1.925-2.689A10.11,10.11,0,0,1,69.8-8.227a11.3,11.3,0,0,1,.668-4.061,8.264,8.264,0,0,1,1.793-2.883,7.378,7.378,0,0,1,2.575-1.714,8.107,8.107,0,0,1,3-.571,8.709,8.709,0,0,1,2.979.492,5.986,5.986,0,0,1,2.355,1.547A7.23,7.23,0,0,1,84.718-12.7a12.461,12.461,0,0,1,.554,3.929q-.018.879-.053,1.494H74.057a5.106,5.106,0,0,0,.527,2.013,3.877,3.877,0,0,0,1.151,1.354,4.742,4.742,0,0,0,1.661.756A8.465,8.465,0,0,0,79.453-2.918ZM77.783-14.2a3.261,3.261,0,0,0-1.406.29,3.3,3.3,0,0,0-1.063.791,3.86,3.86,0,0,0-.712,1.169,5.632,5.632,0,0,0-.352,1.424h6.7a4.891,4.891,0,0,0-.2-1.424,3.5,3.5,0,0,0-.6-1.169,2.828,2.828,0,0,0-.984-.791A3.088,3.088,0,0,0,77.783-14.2ZM95.6-4.939a1.312,1.312,0,0,0-.308-.9,2.427,2.427,0,0,0-.817-.589,7.127,7.127,0,0,0-1.169-.413q-.659-.176-1.38-.352a17.626,17.626,0,0,1-1.758-.571,5.346,5.346,0,0,1-1.485-.853,3.779,3.779,0,0,1-1.02-1.327,4.567,4.567,0,0,1-.378-1.96,5.581,5.581,0,0,1,.51-2.47,4.9,4.9,0,0,1,1.38-1.731,5.87,5.87,0,0,1,2.021-1.02,8.7,8.7,0,0,1,2.435-.334,16.061,16.061,0,0,1,2.936.255,15.5,15.5,0,0,1,2.479.659v3.393q-.58-.193-1.222-.36t-1.3-.29q-.659-.123-1.31-.2a10.214,10.214,0,0,0-1.23-.079,4.758,4.758,0,0,0-1.248.141,2.459,2.459,0,0,0-.826.378,1.426,1.426,0,0,0-.457.545,1.526,1.526,0,0,0-.141.642,1.433,1.433,0,0,0,.308.949,2.181,2.181,0,0,0,.853.6,7.911,7.911,0,0,0,1.143.378l1.16.29q.879.211,1.758.51a5.517,5.517,0,0,1,1.582.835,4.134,4.134,0,0,1,1.151,1.389,4.644,4.644,0,0,1,.448,2.171,5.48,5.48,0,0,1-.545,2.514A4.963,4.963,0,0,1,97.651-.958,6.69,6.69,0,0,1,95.313.1a12.276,12.276,0,0,1-3,.343A15.1,15.1,0,0,1,89.407.185a9.7,9.7,0,0,1-2.136-.642V-3.814A13.353,13.353,0,0,0,89.8-3.12a13.813,13.813,0,0,0,2.162.185,8.558,8.558,0,0,0,1.441-.114,4.032,4.032,0,0,0,1.151-.36,2.144,2.144,0,0,0,.765-.624A1.474,1.474,0,0,0,95.6-4.939Z" transform="translate(123.87 362.07)" fill="#68119a"/>
      <path id="Path_19500" data-name="Path 19500" d="M1.853-3H4.874V0H1.853ZM15.566-.236a6.728,6.728,0,0,1-1.235.365,7.552,7.552,0,0,1-1.539.152,6.989,6.989,0,0,1-2.2-.337A4.97,4.97,0,0,1,8.806-1.078,4.74,4.74,0,0,1,7.6-2.813a6.341,6.341,0,0,1-.438-2.454,6.535,6.535,0,0,1,.505-2.7A5.228,5.228,0,0,1,8.98-9.787a5.19,5.19,0,0,1,1.808-1.033,6.306,6.306,0,0,1,1.982-.331,7.444,7.444,0,0,1,1.4.129,6.45,6.45,0,0,1,1.224.354V-8.5a6.158,6.158,0,0,0-1.05-.343,5.277,5.277,0,0,0-1.2-.129,3.812,3.812,0,0,0-1.224.2,2.763,2.763,0,0,0-1.033.623,2.966,2.966,0,0,0-.713,1.129,4.813,4.813,0,0,0-.264,1.69,4.433,4.433,0,0,0,.2,1.353,3.057,3.057,0,0,0,.59,1.084,2.848,2.848,0,0,0,.988.724,3.387,3.387,0,0,0,1.421.275,5.568,5.568,0,0,0,1.325-.146A8.214,8.214,0,0,0,15.566-2.4Zm4.617-11.59q0,.842-.028,1.387a9.838,9.838,0,0,1-.1.983H20.1a4.65,4.65,0,0,1,.578-.629,4.018,4.018,0,0,1,.752-.545,4.215,4.215,0,0,1,.932-.376,4.268,4.268,0,0,1,1.151-.146,5.124,5.124,0,0,1,1.05.107,3.84,3.84,0,0,1,.955.331,3.223,3.223,0,0,1,.809.584,3.184,3.184,0,0,1,.612.854,3.657,3.657,0,0,1,.314.966A7.266,7.266,0,0,1,27.36-7V0H24.7V-6.637a6.152,6.152,0,0,0-.045-.825,1.907,1.907,0,0,0-.157-.556,1.39,1.39,0,0,0-.674-.7,2.36,2.36,0,0,0-1-.2,3.029,3.029,0,0,0-1.432.371,4,4,0,0,0-1.207,1.056V0H17.522V-16.262h2.662Z" transform="translate(225.065 360.455)" fill="#18d9c5"/>
    </g>
  </g>
</svg>
