<svg xmlns="http://www.w3.org/2000/svg" width="24" height="16" viewBox="0 0 24 16">
  <g id="english-icon" transform="translate(0 -4)">
    <rect id="Rectangle_1850" data-name="Rectangle 1850" width="24" height="16" transform="translate(0 4)" fill="#f0f0f0"/>
    <path id="Path_20822" data-name="Path 20822" d="M13.5,4h-3v6.5H0v3H10.5V20h3V13.5H24v-3H13.5Z" fill="#d80027"/>
    <g id="Group_42190" data-name="Group 42190">
      <path id="Path_20823" data-name="Path 20823" d="M18.459,14.782,24,17.861V14.782Z" fill="#0052b4"/>
      <path id="Path_20824" data-name="Path 20824" d="M14.609,14.782,24,20V18.524l-6.736-3.742Z" fill="#0052b4"/>
      <path id="Path_20825" data-name="Path 20825" d="M21.5,20l-6.89-3.828V20Z" fill="#0052b4"/>
    </g>
    <path id="Path_20826" data-name="Path 20826" d="M14.609,14.782,24,20V18.524l-6.736-3.742Z" fill="#f0f0f0"/>
    <path id="Path_20827" data-name="Path 20827" d="M14.609,14.782,24,20V18.524l-6.736-3.742Z" fill="#d80027"/>
    <g id="Group_42191" data-name="Group 42191">
      <path id="Path_20828" data-name="Path 20828" d="M4.235,14.782,0,17.135V14.782Z" fill="#0052b4"/>
      <path id="Path_20829" data-name="Path 20829" d="M9.391,15.446V20h-8.2Z" fill="#0052b4"/>
    </g>
    <path id="Path_20830" data-name="Path 20830" d="M6.736,14.782,0,18.524V20H0l9.391-5.217Z" fill="#d80027"/>
    <g id="Group_42192" data-name="Group 42192">
      <path id="Path_20831" data-name="Path 20831" d="M5.541,9.217,0,6.139V9.217Z" fill="#0052b4"/>
      <path id="Path_20832" data-name="Path 20832" d="M9.391,9.217,0,4V5.475L6.736,9.217Z" fill="#0052b4"/>
      <path id="Path_20833" data-name="Path 20833" d="M2.5,4l6.89,3.828V4Z" fill="#0052b4"/>
    </g>
    <path id="Path_20834" data-name="Path 20834" d="M9.391,9.217,0,4V5.475L6.736,9.217Z" fill="#f0f0f0"/>
    <path id="Path_20835" data-name="Path 20835" d="M9.391,9.217,0,4V5.475L6.736,9.217Z" fill="#d80027"/>
    <g id="Group_42193" data-name="Group 42193">
      <path id="Path_20836" data-name="Path 20836" d="M19.765,9.217,24,6.865V9.217Z" fill="#0052b4"/>
      <path id="Path_20837" data-name="Path 20837" d="M14.609,8.554V4h8.2Z" fill="#0052b4"/>
    </g>
    <path id="Path_20838" data-name="Path 20838" d="M17.264,9.217,24,5.475V4h0L14.609,9.217Z" fill="#d80027"/>
  </g>
</svg>
