<svg xmlns="http://www.w3.org/2000/svg" width="19.639" height="18.82" viewBox="0 0 19.639 18.82">
  <path id="rating-icon" d="M3.989,8.234H.921A.9.9,0,0,0,0,9.116v8.822a.9.9,0,0,0,.921.882H3.989a.9.9,0,0,0,.921-.882V9.116A.9.9,0,0,0,3.989,8.234ZM2.455,17.35a.883.883,0,1,1,0-1.764.883.883,0,1,1,0,1.764ZM14.729,2.994c0,1.559-1,2.434-1.276,3.475h3.9a2.247,2.247,0,0,1,2.284,2.136,2.6,2.6,0,0,1-.746,1.808l0,0a2.963,2.963,0,0,1-.357,2.921,2.817,2.817,0,0,1-.628,2.748,1.883,1.883,0,0,1-.236,1.641c-.783,1.078-2.723,1.093-4.364,1.093h-.109a11.384,11.384,0,0,1-4.586-1.166,6.23,6.23,0,0,0-2.02-.595.451.451,0,0,1-.452-.441V8.761a.432.432,0,0,1,.136-.313C7.793,7.008,8.446,5.485,9.692,4.29a4.361,4.361,0,0,0,.974-2.165c.171-.68.527-2.124,1.3-2.124C12.888,0,14.729.294,14.729,2.994Z" fill="#272727"/>
</svg>
