<svg xmlns="http://www.w3.org/2000/svg" width="24" height="24" viewBox="0 0 24 24">
  <g id="address-icon" transform="translate(-1990 15292)">
    <rect id="Rectangle_1575" data-name="Rectangle 1575" width="24" height="24" transform="translate(1990 -15292)" fill="none"/>
    <g id="placeholder" transform="translate(1993 -15290.999)">
      <path id="Path_20183" data-name="Path 20183" d="M21.724,23.174a.424.424,0,0,0,.334-.158c.235-.3,5.846-7.278,5.846-11.833a6.181,6.181,0,1,0-12.363,0c0,4.554,5.611,11.538,5.85,11.833A.424.424,0,0,0,21.724,23.174Zm-2.7-11.991a2.7,2.7,0,1,1,2.7,2.7,2.7,2.7,0,0,1-2.7-2.7Z" transform="translate(-12.341 -5)" fill="#68119a"/>
      <path id="Path_20184" data-name="Path 20184" d="M8.488,46.346H26.4a.427.427,0,0,0,.385-.612l-2.7-5.611a.431.431,0,0,0-.389-.244H21.039c-1.12,1.749-2.181,3.113-2.587,3.622a1.284,1.284,0,0,1-2.014.009A41.5,41.5,0,0,1,13.85,39.88H11.19a.429.429,0,0,0-.385.244L8.1,45.734a.423.423,0,0,0,.385.612Z" transform="translate(-8.06 -24.964)" fill="#68119a"/>
    </g>
  </g>
</svg>
