<svg xmlns="http://www.w3.org/2000/svg" xmlns:xlink="http://www.w3.org/1999/xlink" width="170.099" height="196.01" viewBox="0 0 170.099 196.01">
  <defs>
    <filter id="Rectangle_1195" x="15.25" y="0" width="142.848" height="142.848" filterUnits="userSpaceOnUse">
      <feOffset dx="3" dy="3" input="SourceAlpha"/>
      <feGaussianBlur stdDeviation="5" result="blur"/>
      <feFlood flood-opacity="0.161"/>
      <feComposite operator="in" in2="blur"/>
      <feComposite in="SourceGraphic"/>
    </filter>
  </defs>
  <g id="app-icon" transform="translate(-103.75 -296)">
    <g id="app-icon-2" data-name="app-icon" transform="translate(514 721)">
      <g transform="matrix(1, 0, 0, 1, -410.25, -425)" filter="url(#Rectangle_1195)">
        <rect id="Rectangle_1195-2" data-name="Rectangle 1195" width="112.848" height="112.848" rx="16" transform="translate(27.25 12)" fill="#fff"/>
      </g>
      <g id="Layer_1" data-name="Layer 1" transform="translate(-354.788 -393.604)">
        <path id="Path_18734" data-name="Path 18734" d="M0,29.92H21.206v13.5L.38,78.134Z" transform="translate(0 -8.869)" fill="#18d9c5"/>
        <path id="Path_18735" data-name="Path 18735" d="M33.538,30.1H57.261L24.317,84.5H.72Z" transform="translate(-0.214 -8.923)" fill="#68119a"/>
        <path id="Path_18736" data-name="Path 18736" d="M54.094,74.34,40.02,97.627H68.294Z" transform="translate(-11.872 -22.047)" fill="#18d9c5"/>
        <path id="Path_18737" data-name="Path 18737" d="M47.634,18.206a2.18,2.18,0,0,1-2.18-2.187,11.654,11.654,0,0,0-23.309,0,2.187,2.187,0,1,1-4.375,0,16.027,16.027,0,1,1,32.055,0,2.187,2.187,0,0,1-2.191,2.187Z" transform="translate(-5.272 0.01)" fill="#18d9c5"/>
      </g>
    </g>
    <g id="Group_39592" data-name="Group 39592" transform="translate(-23.653 117.835)">
      <path id="Path_19490" data-name="Path 19490" d="M3.75,0V-31.359H9.492v14.273h.094L21.422-31.359h7.125L15.469-15.82,29.625,0H22.266L9.586-14.156H9.492V0ZM45.3-2.414h-.094A10.581,10.581,0,0,1,44.08-1.406a10.577,10.577,0,0,1-1.5.973A8.764,8.764,0,0,1,40.705.3a8.437,8.437,0,0,1-2.227.281,8.9,8.9,0,0,1-3.023-.5,6.833,6.833,0,0,1-2.414-1.453,6.741,6.741,0,0,1-1.582-2.3,7.61,7.61,0,0,1-.574-3.012,7.769,7.769,0,0,1,.668-3.281,7,7,0,0,1,1.863-2.461,8.238,8.238,0,0,1,2.859-1.535,12.137,12.137,0,0,1,3.68-.527,18.272,18.272,0,0,1,2.719.188,18.993,18.993,0,0,1,2.18.445v-.914a4.442,4.442,0,0,0-.27-1.535,3.442,3.442,0,0,0-.867-1.312,4.266,4.266,0,0,0-1.559-.914,7.074,7.074,0,0,0-2.344-.34,15.516,15.516,0,0,0-3.375.375,26.508,26.508,0,0,0-3.656,1.125V-21.7a18.247,18.247,0,0,1,3.633-1.148,20.972,20.972,0,0,1,4.031-.422,14.009,14.009,0,0,1,4.348.609,9.13,9.13,0,0,1,3.117,1.676,6.769,6.769,0,0,1,1.875,2.52,7.966,7.966,0,0,1,.621,3.164V-6.75q0,2.25.047,3.867T50.549,0H45.533ZM44.854-9.68q-.8-.187-1.828-.34a14.254,14.254,0,0,0-2.086-.152,5.637,5.637,0,0,0-3.223.809,2.789,2.789,0,0,0-1.184,2.473,3.143,3.143,0,0,0,.27,1.348,2.679,2.679,0,0,0,.727.949,3.1,3.1,0,0,0,1.066.563,4.359,4.359,0,0,0,1.289.188,5.573,5.573,0,0,0,1.594-.223,7.313,7.313,0,0,0,1.383-.562A6.706,6.706,0,0,0,44-5.391a7.923,7.923,0,0,0,.855-.82ZM65.238.586a12.316,12.316,0,0,1-5.672-1.16,8.118,8.118,0,0,1-3.4-3.129,8.39,8.39,0,0,1-.9-2.32,12.489,12.489,0,0,1-.293-2.812V-22.711h5.555V-9.422a10.377,10.377,0,0,0,.164,1.98A5.12,5.12,0,0,0,61.184-6a3.561,3.561,0,0,0,1.594,1.535,5.554,5.554,0,0,0,2.461.5A5.437,5.437,0,0,0,67.8-4.523,3.6,3.6,0,0,0,69.41-6.234a7.117,7.117,0,0,0,.539-3.07V-22.711H75.5V-8.836a10.251,10.251,0,0,1-.961,4.664,7.781,7.781,0,0,1-1.395,1.957,8.166,8.166,0,0,1-2.016,1.5,10.626,10.626,0,0,1-2.625.961A14.494,14.494,0,0,1,65.238.586ZM94.154-29.437q-.914-.234-1.887-.387a11.913,11.913,0,0,0-1.84-.152,5.683,5.683,0,0,0-1.664.223,2.86,2.86,0,0,0-1.23.738,3.281,3.281,0,0,0-.762,1.336,6.7,6.7,0,0,0-.258,1.992v2.977h6.3v4.57h-6.3V0H80.959V-18.141H77.115v-4.57h3.844v-2.7a11.376,11.376,0,0,1,.668-4.113,7.515,7.515,0,0,1,1.863-2.836A7.465,7.465,0,0,1,86.3-34a11.281,11.281,0,0,1,3.516-.527,13.755,13.755,0,0,1,2.332.2,13.781,13.781,0,0,1,2,.48ZM105.938-3.891a18.4,18.4,0,0,0,3.375-.328,26.117,26.117,0,0,0,3.563-.937v4.43a16.63,16.63,0,0,1-3.3.891,24.755,24.755,0,0,1-4.617.422,16.56,16.56,0,0,1-4.582-.621,9.966,9.966,0,0,1-3.785-2A9.645,9.645,0,0,1,94.02-5.625a13.48,13.48,0,0,1-.949-5.344,15.066,15.066,0,0,1,.891-5.414,11.019,11.019,0,0,1,2.391-3.844,9.837,9.837,0,0,1,3.434-2.285,10.81,10.81,0,0,1,4-.762,11.612,11.612,0,0,1,3.973.656,7.981,7.981,0,0,1,3.141,2.063,9.64,9.64,0,0,1,2.063,3.621A16.615,16.615,0,0,1,113.7-11.7q-.023,1.172-.07,1.992H98.742a6.808,6.808,0,0,0,.7,2.684,5.17,5.17,0,0,0,1.535,1.8A6.322,6.322,0,0,0,103.2-4.207,11.286,11.286,0,0,0,105.938-3.891Zm-2.227-15.047a4.348,4.348,0,0,0-1.875.387,4.4,4.4,0,0,0-1.418,1.055,5.147,5.147,0,0,0-.949,1.559,7.509,7.509,0,0,0-.469,1.9h8.93a6.521,6.521,0,0,0-.27-1.9,4.669,4.669,0,0,0-.8-1.559,3.771,3.771,0,0,0-1.312-1.055A4.118,4.118,0,0,0,103.711-18.937Zm23.76,12.352a1.749,1.749,0,0,0-.41-1.2,3.236,3.236,0,0,0-1.09-.785,9.5,9.5,0,0,0-1.559-.551q-.879-.234-1.84-.469a23.5,23.5,0,0,1-2.344-.762,7.129,7.129,0,0,1-1.98-1.137,5.039,5.039,0,0,1-1.359-1.77,6.09,6.09,0,0,1-.5-2.613,7.441,7.441,0,0,1,.68-3.293,6.537,6.537,0,0,1,1.84-2.309,7.827,7.827,0,0,1,2.7-1.359,11.6,11.6,0,0,1,3.246-.445,21.414,21.414,0,0,1,3.914.34,20.667,20.667,0,0,1,3.3.879v4.523q-.773-.258-1.629-.48T128.7-18.4q-.879-.164-1.746-.27a13.618,13.618,0,0,0-1.641-.105,6.344,6.344,0,0,0-1.664.188,3.279,3.279,0,0,0-1.1.5,1.9,1.9,0,0,0-.609.727,2.035,2.035,0,0,0-.187.855,1.911,1.911,0,0,0,.41,1.266,2.909,2.909,0,0,0,1.137.8,10.548,10.548,0,0,0,1.523.5l1.547.387q1.172.281,2.344.68a7.356,7.356,0,0,1,2.109,1.113A5.512,5.512,0,0,1,132.358-9.9a6.192,6.192,0,0,1,.6,2.895,7.307,7.307,0,0,1-.727,3.352A6.618,6.618,0,0,1,130.2-1.277,8.92,8.92,0,0,1,127.084.129a16.368,16.368,0,0,1-4,.457,20.134,20.134,0,0,1-3.879-.34,12.933,12.933,0,0,1-2.848-.855V-5.086a17.8,17.8,0,0,0,3.375.926,18.417,18.417,0,0,0,2.883.246,11.411,11.411,0,0,0,1.922-.152,5.376,5.376,0,0,0,1.535-.48,2.859,2.859,0,0,0,1.02-.832A1.965,1.965,0,0,0,127.471-6.586Z" transform="translate(123.653 373.588)" fill="#fff"/>
      <path id="Path_19491" data-name="Path 19491" d="M2.578-4.172h4.2V0h-4.2ZM21.658-.328A9.36,9.36,0,0,1,19.939.18,10.508,10.508,0,0,1,17.8.391a9.724,9.724,0,0,1-3.062-.469A6.915,6.915,0,0,1,12.251-1.5,6.594,6.594,0,0,1,10.58-3.914,8.822,8.822,0,0,1,9.97-7.328a9.093,9.093,0,0,1,.7-3.75,7.274,7.274,0,0,1,1.82-2.539,7.221,7.221,0,0,1,2.516-1.437,8.774,8.774,0,0,1,2.758-.461,10.357,10.357,0,0,1,1.953.18,8.974,8.974,0,0,1,1.7.492v3.016a8.568,8.568,0,0,0-1.461-.477,7.343,7.343,0,0,0-1.664-.18,5.3,5.3,0,0,0-1.7.273,3.844,3.844,0,0,0-1.437.867,4.127,4.127,0,0,0-.992,1.57A6.7,6.7,0,0,0,13.8-7.422a6.167,6.167,0,0,0,.281,1.883,4.253,4.253,0,0,0,.82,1.508,3.962,3.962,0,0,0,1.375,1.008,4.712,4.712,0,0,0,1.977.383,7.747,7.747,0,0,0,1.844-.2,11.428,11.428,0,0,0,1.563-.5Zm6.423-16.125q0,1.172-.039,1.93a13.687,13.687,0,0,1-.133,1.367h.063a6.469,6.469,0,0,1,.8-.875,5.59,5.59,0,0,1,1.047-.758,5.864,5.864,0,0,1,1.3-.523,5.938,5.938,0,0,1,1.6-.2,7.129,7.129,0,0,1,1.461.148,5.343,5.343,0,0,1,1.328.461,4.484,4.484,0,0,1,1.125.813,4.43,4.43,0,0,1,.852,1.188,5.088,5.088,0,0,1,.438,1.344,10.109,10.109,0,0,1,.141,1.828V0h-3.7V-9.234a8.559,8.559,0,0,0-.062-1.148,2.653,2.653,0,0,0-.219-.773,1.933,1.933,0,0,0-.937-.969,3.283,3.283,0,0,0-1.391-.281,4.215,4.215,0,0,0-1.992.516,5.57,5.57,0,0,0-1.68,1.469V0h-3.7V-22.625h3.7Z" transform="translate(259.437 372.172)" fill="#fff"/>
    </g>
  </g>
</svg>
