<svg id="apple_logo" data-name="apple logo" xmlns="http://www.w3.org/2000/svg" width="32.57" height="40" viewBox="0 0 32.57 40">
  <path id="Path_20164" data-name="Path 20164" d="M27.2,21.251a8.841,8.841,0,0,0,5.369,8.093A21.892,21.892,0,0,1,29.8,35.033c-1.667,2.437-3.4,4.865-6.123,4.915C21,40,20.139,38.36,17.077,38.36S13.059,39.9,10.524,40c-2.631.1-4.635-2.635-6.316-5.063C.773,29.969-1.852,20.9,1.673,14.781A9.792,9.792,0,0,1,9.949,9.768c2.584-.049,5.022,1.738,6.6,1.738s4.542-2.15,7.657-1.834a9.344,9.344,0,0,1,7.316,3.968A9.046,9.046,0,0,0,27.2,21.251M22.168,6.387A8.81,8.81,0,0,0,24.248,0a8.967,8.967,0,0,0-5.892,3.032,8.372,8.372,0,0,0-2.122,6.187,7.419,7.419,0,0,0,5.934-2.832" transform="translate(0)"/>
</svg>
