<svg xmlns="http://www.w3.org/2000/svg" width="74" height="74" viewBox="0 0 74 74">
  <g id="feature-icon" transform="translate(0 -0.5)">
    <rect id="Rectangle_1550" data-name="Rectangle 1550" width="74" height="74" rx="16" transform="translate(0 0.5)" fill="#fff"/>
    <g id="sell-stuff-icon" transform="translate(13.32 13.45)">
      <circle id="Ellipse_225" data-name="Ellipse 225" cx="22.57" cy="22.57" r="22.57" transform="translate(0 2.319)" fill="#ebf3ff"/>
      <path id="Path_19452" data-name="Path 19452" d="M31.35,7.923a.435.435,0,0,1-.248.388,4.31,4.31,0,0,0-2.221,2.474l-.239.768a.456.456,0,0,1-.858,0l-.262-.768A4.31,4.31,0,0,0,25.3,8.311a.43.43,0,0,1,0-.777A4.31,4.31,0,0,0,27.522,5.06l.262-.768a.456.456,0,0,1,.858,0l.262.768a4.31,4.31,0,0,0,2.221,2.474A.434.434,0,0,1,31.35,7.923Z" transform="translate(-15.795 -2.569)" fill="#18d9c5"/>
      <path id="Path_19453" data-name="Path 19453" d="M97.35,76.923a.435.435,0,0,1-.248.388,4.31,4.31,0,0,0-2.221,2.474l-.239.768a.456.456,0,0,1-.858,0l-.262-.768A4.31,4.31,0,0,0,91.3,77.311a.43.43,0,0,1,0-.777,4.31,4.31,0,0,0,2.221-2.474l.262-.768a.456.456,0,0,1,.858,0l.262.768a4.31,4.31,0,0,0,2.221,2.474A.434.434,0,0,1,97.35,76.923Z" transform="translate(-52.003 -41.461)" fill="#18d9c5"/>
      <ellipse id="Ellipse_226" data-name="Ellipse 226" cx="1.633" cy="1.184" rx="1.633" ry="1.184" transform="translate(0.817)" fill="#00c99f"/>
      <ellipse id="Ellipse_227" data-name="Ellipse 227" cx="1.225" cy="1.579" rx="1.225" ry="1.579" transform="translate(44.91 3.157)" fill="#18d9c5"/>
      <ellipse id="Ellipse_228" data-name="Ellipse 228" cx="1.633" cy="1.184" rx="1.633" ry="1.184" transform="translate(41.644 44.992)" fill="#00c99f"/>
      <ellipse id="Ellipse_229" data-name="Ellipse 229" cx="1.633" cy="1.579" rx="1.633" ry="1.579" transform="translate(1.633 41.835)" fill="#18d9c5"/>
      <path id="Path_19454" data-name="Path 19454" d="M54.4,39.537,49.927,57.924a2.691,2.691,0,0,1-2.641,2.02H23.255a.446.446,0,0,1-.451-.4L21,39.476a.427.427,0,0,1,.117-.334A.459.459,0,0,1,21.449,39h32.5a.457.457,0,0,1,.357.166A.426.426,0,0,1,54.4,39.537Z" transform="translate(-13.568 -22.301)" fill="#68119a"/>
      <path id="Path_19455" data-name="Path 19455" d="M21.438,49.31a.427.427,0,0,1-.108.34.458.458,0,0,1-.343.148H18.729a1.776,1.776,0,0,0-1.806,1.745,1.415,1.415,0,0,0,.032.31,21.081,21.081,0,0,1-2.234-2.308,4.523,4.523,0,0,1,3.724-2.365L15.4,23.618H13.57A22.546,22.546,0,0,1,15.728,21h.451a1.786,1.786,0,0,1,1.806,1.527Z" transform="translate(-9.494 -12.156)" fill="#8fa2ff"/>
      <path id="Path_19456" data-name="Path 19456" d="M51.632,96.309a1.332,1.332,0,0,1-1.354,1.309H29.685A22.832,22.832,0,0,1,25,95H50.278a1.371,1.371,0,0,1,1.07.511A1.281,1.281,0,0,1,51.632,96.309Z" transform="translate(-15.764 -53.866)" fill="#8fa2ff"/>
      <rect id="Rectangle_1255" data-name="Rectangle 1255" width="2.45" height="13.419" rx="1.225" transform="translate(15.514 20.523)" fill="#18d9c5"/>
      <rect id="Rectangle_1256" data-name="Rectangle 1256" width="2.45" height="13.419" rx="1.225" transform="translate(22.863 20.523)" fill="#18d9c5"/>
      <path id="Path_19457" data-name="Path 19457" d="M52.9,21H63.736a.888.888,0,0,1,.9.873v6.981H52V21.873A.888.888,0,0,1,52.9,21Z" transform="translate(-30.577 -12.156)" fill="#008779"/>
      <rect id="Rectangle_1257" data-name="Rectangle 1257" width="1.633" height="13.419" rx="0.817" transform="translate(31.029 20.523)" fill="#18d9c5"/>
      <path id="Path_19458" data-name="Path 19458" d="M32.9,29h9.028a.888.888,0,0,1,.9.873v3.491H32V29.873A.888.888,0,0,1,32.9,29Z" transform="translate(-19.605 -16.665)" fill="#a853d9"/>
      <rect id="Rectangle_1258" data-name="Rectangle 1258" width="1.633" height="7.893" transform="translate(31.029 8.683)" fill="#00c99f"/>
      <rect id="Rectangle_1259" data-name="Rectangle 1259" width="1.633" height="4.736" transform="translate(13.881 11.84)" fill="#68119a"/>
    </g>
  </g>
</svg>
