<svg xmlns="http://www.w3.org/2000/svg" xmlns:xlink="http://www.w3.org/1999/xlink" width="46.438" height="43.999" viewBox="0 0 46.438 43.999">
  <defs>
    <clipPath id="clip-path">
      <path id="path864" d="M0-682.665H40v40H0Z" transform="translate(0 682.665)"/>
    </clipPath>
  </defs>
  <g id="commercial-icon" transform="translate(-296.563 -282.001)">
    <g id="g858" transform="translate(296.563 964.666)">
      <g id="g860" transform="translate(0 -682.665)">
        <g id="g862" clip-path="url(#clip-path)">
          <g id="g868" transform="translate(3.112 16.052)">
            <path id="path870" d="M-542.654-1.673V15.192h-33.775V-1.777" transform="translate(576.429 1.777)" fill="none" stroke="#68119a" stroke-linecap="round" stroke-linejoin="round" stroke-width="1.5"/>
          </g>
          <g id="g872" transform="translate(0.781 33.021)">
            <path id="path874" d="M-252.038-65.9h-15.687v-4.1h38.438v4.1h-15.687" transform="translate(267.725 70.007)" fill="none" stroke="#68119a" stroke-linecap="round" stroke-linejoin="round" stroke-width="1.5"/>
          </g>
          <g id="g876" transform="translate(20.014 37.123)">
            <path id="path878" d="M0,0H0" fill="none" stroke="#68119a" stroke-linecap="round" stroke-linejoin="round" stroke-width="1.5"/>
          </g>
          <g id="g880" transform="translate(1.61 2.877)">
            <path id="path882" d="M-125.115,0h-5.3L-132.9,6.218h6.13Z" transform="translate(132.902)" fill="none" stroke="#68119a" stroke-linecap="round" stroke-linejoin="round" stroke-width="1.5"/>
          </g>
          <g id="g884" transform="translate(1.61 9.095)">
            <path id="path886" d="M0,0V4.19A3.065,3.065,0,0,0,3.065,7.255h0A3.065,3.065,0,0,0,6.13,4.19V0Z" fill="none" stroke="#68119a" stroke-linecap="round" stroke-linejoin="round" stroke-width="1.5"/>
          </g>
          <g id="g888" transform="translate(7.74 9.095)">
            <path id="path890" d="M0,0V4.19a3.065,3.065,0,0,0,6.13,0V0Z" fill="none" stroke="#68119a" stroke-linecap="round" stroke-linejoin="round" stroke-width="1.5"/>
          </g>
          <g id="g892" transform="translate(7.74 2.877)">
            <path id="path894" d="M-111.8,0h-5.3l-1.657,6.218h6.13Z" transform="translate(118.761)" fill="none" stroke="#68119a" stroke-linecap="round" stroke-linejoin="round" stroke-width="1.5"/>
          </g>
          <g id="g896" transform="translate(13.87 2.877)">
            <path id="path898" d="M-98.488,0h-5.3l-.829,6.218h6.13Z" transform="translate(104.618)" fill="none" stroke="#68119a" stroke-linecap="round" stroke-linejoin="round" stroke-width="1.5"/>
          </g>
          <g id="g900" transform="translate(13.87 9.095)">
            <path id="path902" d="M0,0V4.19a3.065,3.065,0,1,0,6.13,0V0Z" fill="none" stroke="#68119a" stroke-linecap="round" stroke-linejoin="round" stroke-width="1.5"/>
          </g>
          <g id="g904" transform="translate(20 2.877)">
            <path id="path906" d="M-85.176,0h-5.3V6.218h6.13Z" transform="translate(90.477)" fill="none" stroke="#68119a" stroke-linecap="round" stroke-linejoin="round" stroke-width="1.5"/>
          </g>
          <g id="g908" transform="translate(20 9.095)">
            <path id="path910" d="M0,0V4.19a3.065,3.065,0,0,0,6.13,0V0Z" fill="none" stroke="#68119a" stroke-linecap="round" stroke-linejoin="round" stroke-width="1.5"/>
          </g>
          <g id="g912" transform="translate(25.301 2.877)">
            <path id="path914" d="M-85.176,0h-5.3l.829,6.218h6.13Z" transform="translate(90.477)" fill="none" stroke="#68119a" stroke-linecap="round" stroke-linejoin="round" stroke-width="1.5"/>
          </g>
          <g id="g916" transform="translate(26.13 9.095)">
            <path id="path918" d="M0,0V4.19a3.065,3.065,0,1,0,6.13,0V0Z" fill="none" stroke="#68119a" stroke-linecap="round" stroke-linejoin="round" stroke-width="1.5"/>
          </g>
          <g id="g920" transform="translate(30.603 2.877)">
            <path id="path922" d="M-85.176,0h-5.3l1.657,6.218h6.13Z" transform="translate(90.477)" fill="none" stroke="#68119a" stroke-linecap="round" stroke-linejoin="round" stroke-width="1.5"/>
          </g>
          <g id="g924" transform="translate(32.26 9.095)">
            <path id="path926" d="M0,0V4.19A3.065,3.065,0,0,0,3.065,7.255h0A3.065,3.065,0,0,0,6.13,4.19V0Z" fill="none" stroke="#68119a" stroke-linecap="round" stroke-linejoin="round" stroke-width="1.5"/>
          </g>
          <path id="path928" d="M126.713-326.879h-9.645v-12.932h9.645Z" transform="translate(-110.208 359.9)" fill="none" stroke="#68119a" stroke-linecap="round" stroke-linejoin="round" stroke-width="1.5"/>
          <path id="path930" d="M370.425-331.314H358.278v-8.5h12.148Z" transform="translate(-337.285 359.9)" fill="none" stroke="#68119a" stroke-linecap="round" stroke-linejoin="round" stroke-width="1.5"/>
          <g id="g932" transform="translate(23.642 22.43)">
            <path id="path934" d="M0-49.989,3.111-53.1" transform="translate(0 53.1)" fill="none" stroke="#68119a" stroke-linecap="round" stroke-linejoin="round" stroke-width="1.5"/>
          </g>
          <g id="g936" transform="translate(25.247 25.936)">
            <path id="path938" d="M0-40.387,2.514-42.9" transform="translate(0 42.901)" fill="none" stroke="#68119a" stroke-linecap="round" stroke-linejoin="round" stroke-width="1.5"/>
          </g>
        </g>
      </g>
    </g>
    <g id="Group_42152" data-name="Group 42152" transform="translate(4 3)">
      <circle id="Ellipse_335" data-name="Ellipse 335" cx="11" cy="11" r="11" transform="translate(317 301)" fill="#18d9c5"/>
      <path id="Polygon_8" data-name="Polygon 8" d="M7.216.846a.3.3,0,0,1,.569,0L9.308,5.38a.3.3,0,0,0,.276.2l4.6.124a.3.3,0,0,1,.18.533L10.688,9.2a.3.3,0,0,0-.1.315L11.9,14.17a.3.3,0,0,1-.465.325l-3.76-2.721a.3.3,0,0,0-.352,0l-3.76,2.721A.3.3,0,0,1,3.1,14.17L4.412,9.519a.3.3,0,0,0-.1-.315L.635,6.241a.3.3,0,0,1,.18-.533l4.6-.124a.3.3,0,0,0,.276-.2Z" transform="translate(321 305)" fill="#fff"/>
    </g>
  </g>
</svg>
