<svg xmlns="http://www.w3.org/2000/svg" width="97" height="106" viewBox="0 0 97 106">
  <g id="forgot-password-icon" transform="translate(-667 -341)">
    <g id="Group_40974" data-name="Group 40974" transform="translate(14709 13196)">
      <path id="Path_20177" data-name="Path 20177" d="M205.773,281.455h-70A4.773,4.773,0,0,1,131,276.682V225.773A4.773,4.773,0,0,1,135.773,221h70a4.773,4.773,0,0,1,4.773,4.773v50.909A4.773,4.773,0,0,1,205.773,281.455Z" transform="translate(-14173 -13030.454)" fill="#68119a"/>
      <path id="Path_20176" data-name="Path 20176" d="M170.545,125.545V111.227a20.682,20.682,0,1,1,41.364,0v14.318h9.545V111.227a30.227,30.227,0,1,0-60.455,0v14.318Z" transform="translate(-14193.454 -12935)" fill="#68119a" stroke="#68119a" stroke-width="2"/>
      <path id="Path_20178" data-name="Path 20178" d="M238.5,282H225.773c-2.636,0-4.773,1.137-4.773,3.773a4.773,4.773,0,0,0,4.773,4.773h3.591V298.5c0,2.636.137,3.773,2.773,3.773s2.773-1.137,2.773-3.773v-7.955H238.5a4.773,4.773,0,0,0,4.773-4.773C243.273,283.137,241.136,282,238.5,282Z" transform="translate(-14234.363 -13071.363)" fill="#fff"/>
    </g>
    <g id="Group_40975" data-name="Group 40975" transform="translate(-12 -60)">
      <ellipse id="Ellipse_304" data-name="Ellipse 304" cx="26" cy="26.381" rx="26" ry="26.381" transform="translate(724 411)" fill="#18d9c5"/>
      <g id="refresh" transform="translate(730.001 381.309)">
        <path id="Path_20179" data-name="Path 20179" d="M11.894,59.018a.986.986,0,0,0-.743-1.634H8.618c-.017-.251-.026-.5-.026-.758A11.441,11.441,0,0,1,27.884,48.3l3.572-4.179A16.935,16.935,0,0,0,3.1,56.626c0,.254.006.506.017.758H.987a.986.986,0,0,0-.743,1.634l4.814,5.522L6.069,65.7,9.7,61.535Z" transform="translate(0)" fill="#fff"/>
        <path id="Path_20180" data-name="Path 20180" d="M151.334,166.866l-3.59-4.118-2.234-2.563-3.19,3.659-2.635,3.022a.986.986,0,0,0,.743,1.634h2.53a11.44,11.44,0,0,1-18.425,8.242l-3.573,4.179a16.936,16.936,0,0,0,27.5-12.421h2.136A.986.986,0,0,0,151.334,166.866Z" transform="translate(-111.5 -111.07)" fill="#fff"/>
      </g>
    </g>
  </g>
</svg>
