<svg xmlns="http://www.w3.org/2000/svg" xmlns:xlink="http://www.w3.org/1999/xlink" width="40" height="40" viewBox="0 0 40 40">
  <defs>
    <clipPath id="clip-path">
      <path id="Path_19409" data-name="Path 19409" d="M37.945,16.909h-17.6v7.3H30.475c-.944,4.636-4.894,7.3-10.132,7.3a11.162,11.162,0,0,1,0-22.324,10.92,10.92,0,0,1,6.955,2.49l5.5-5.5a18.877,18.877,0,1,0-12.45,33.056c9.445,0,18.031-6.869,18.031-18.889A15.67,15.67,0,0,0,37.945,16.909Z" transform="translate(-1.455 -1.455)"/>
    </clipPath>
  </defs>
  <g id="google" transform="translate(-4256 53)">
    <circle id="Ellipse_136" data-name="Ellipse 136" cx="20" cy="20" r="20" transform="translate(4256 -53)" fill="none"/>
    <g id="google-icon" transform="translate(4257.237 -51.889)">
      <g id="Group_39467" data-name="Group 39467" transform="translate(0 0)" clip-path="url(#clip-path)">
        <path id="Path_19408" data-name="Path 19408" d="M0,30.324V8L14.6,19.162Z" transform="translate(-1.717 -0.273)" fill="#fbbc05"/>
      </g>
      <g id="Group_39468" data-name="Group 39468" transform="translate(0 0)" clip-path="url(#clip-path)">
        <path id="Path_19410" data-name="Path 19410" d="M0,9.445,14.6,20.606l6.01-5.237L41.213,12.02V0H0Z" transform="translate(-1.717 -1.717)" fill="#ea4335"/>
      </g>
      <g id="Group_39469" data-name="Group 39469" transform="translate(0 0)" clip-path="url(#clip-path)">
        <path id="Path_19412" data-name="Path 19412" d="M0,31.768,25.758,12.02l6.783.859L41.213,0V41.213H0Z" transform="translate(-1.717 -1.717)" fill="#34a853"/>
      </g>
      <g id="Group_39470" data-name="Group 39470" transform="translate(0 0)" clip-path="url(#clip-path)">
        <path id="Path_19414" data-name="Path 19414" d="M39.506,39.768,12.889,19.162,9.455,16.586,39.506,8Z" transform="translate(-0.01 -0.273)" fill="#4285f4"/>
      </g>
    </g>
  </g>
</svg>
