<svg xmlns="http://www.w3.org/2000/svg" width="24" height="24" viewBox="0 0 24 24">
  <g id="language-icon" transform="translate(-24 -655)">
    <rect id="Rectangle_1854" data-name="Rectangle 1854" width="24" height="24" transform="translate(24 655)" fill="none"/>
    <g id="world" transform="translate(26.053 656.222)">
      <path id="Path_20848" data-name="Path 20848" d="M141.064,153.09v-3.542h-3.68a21.332,21.332,0,0,0-.349,3.542Z" transform="translate(-131.701 -142.897)" fill="#68119a"/>
      <path id="Path_20849" data-name="Path 20849" d="M156.3,5.484V.864c-1.367.341-2.673,1.9-3.412,4.62Z" transform="translate(-146.936)" fill="#68119a"/>
      <path id="Path_20850" data-name="Path 20850" d="M4.167,270.548H0a9.858,9.858,0,0,0,.861,3.5H4.5A23.019,23.019,0,0,1,4.167,270.548Z" transform="translate(0 -259.187)" fill="#68119a"/>
      <path id="Path_20851" data-name="Path 20851" d="M0,153.09H4.166a22.914,22.914,0,0,1,.328-3.542H.879A9.857,9.857,0,0,0,0,153.09Z" transform="translate(0 -142.897)" fill="#68119a"/>
      <path id="Path_20852" data-name="Path 20852" d="M270.548.989V5.6h3.4a10.669,10.669,0,0,0-.924-2.342A4.3,4.3,0,0,0,270.548.989Z" transform="translate(-260.017 -0.12)" fill="#68119a"/>
      <path id="Path_20853" data-name="Path 20853" d="M141.1,270.548h-4.028a21.352,21.352,0,0,0,.347,3.5h3.68v-3.5Z" transform="translate(-131.733 -259.187)" fill="#68119a"/>
      <path id="Path_20854" data-name="Path 20854" d="M340.176,14.868a12.144,12.144,0,0,1,1.109,2.907h3.243a10.113,10.113,0,0,0-1.4-1.744,9.965,9.965,0,0,0-3.776-2.378,7.8,7.8,0,0,1,.821,1.215Z" transform="translate(-326.146 -12.291)" fill="#68119a"/>
      <path id="Path_20855" data-name="Path 20855" d="M274.576,153.09a21.286,21.286,0,0,0-.355-3.542h-3.673v3.542Z" transform="translate(-260.017 -142.897)" fill="#68119a"/>
      <path id="Path_20856" data-name="Path 20856" d="M342,390.548a12.124,12.124,0,0,1-1.122,2.964,7.775,7.775,0,0,1-.8,1.187,9.968,9.968,0,0,0,3.748-2.368,10.112,10.112,0,0,0,1.421-1.783Z" transform="translate(-326.841 -374.516)" fill="#68119a"/>
      <path id="Path_20857" data-name="Path 20857" d="M42.067,18.013a12.087,12.087,0,0,1,1.112-2.925,7.771,7.771,0,0,1,.8-1.188,9.968,9.968,0,0,0-3.748,2.368,10.118,10.118,0,0,0-1.4,1.744h3.231Z" transform="translate(-37.324 -12.53)" fill="#68119a"/>
      <path id="Path_20858" data-name="Path 20858" d="M395.373,149.548a22.958,22.958,0,0,1,.337,3.542h4.167a9.856,9.856,0,0,0-.879-3.542Z" transform="translate(-379.983 -142.897)" fill="#68119a"/>
      <path id="Path_20859" data-name="Path 20859" d="M42.6,393.494a12.182,12.182,0,0,1-1.118-2.946H38.219a10.113,10.113,0,0,0,1.421,1.783,9.966,9.966,0,0,0,3.776,2.378,7.8,7.8,0,0,1-.821-1.215Z" transform="translate(-36.731 -374.516)" fill="#68119a"/>
      <path id="Path_20860" data-name="Path 20860" d="M270.548,270.548v3.5h3.688a21.376,21.376,0,0,0,.341-3.5Z" transform="translate(-260.017 -259.187)" fill="#68119a"/>
      <path id="Path_20861" data-name="Path 20861" d="M400.295,270.548h-4.166a22.965,22.965,0,0,1-.322,3.5h3.627A9.86,9.86,0,0,0,400.295,270.548Z" transform="translate(-380.4 -259.187)" fill="#68119a"/>
      <path id="Path_20862" data-name="Path 20862" d="M270.548,390.548v4.659c1.373-.342,2.686-1.917,3.423-4.659Z" transform="translate(-260.017 -374.516)" fill="#68119a"/>
      <path id="Path_20863" data-name="Path 20863" d="M156.288,395.2v-4.654h-3.413a10.71,10.71,0,0,0,.935,2.381A4.3,4.3,0,0,0,156.288,395.2Z" transform="translate(-146.924 -374.516)" fill="#68119a"/>
    </g>
  </g>
</svg>
