<svg xmlns="http://www.w3.org/2000/svg" width="24" height="24" viewBox="0 0 24 24">
  <g id="login-security-icon" transform="translate(-1953 15346)">
    <rect id="Rectangle_1571" data-name="Rectangle 1571" width="24" height="24" transform="translate(1953 -15346)" fill="none"/>
    <g id="cyber-security" transform="translate(1954.71 -15345.353)">
      <path id="Path_20203" data-name="Path 20203" d="M148.191,275.295h6.784v-4.084h-6.784Zm3.392-2.722a.681.681,0,1,1-.678.681A.679.679,0,0,1,151.583,272.572Zm0,0" transform="translate(-141.512 -258.946)" fill="#68119a"/>
      <path id="Path_20204" data-name="Path 20204" d="M19.964,2.737a16.222,16.222,0,0,1-6.921-1.228,4.709,4.709,0,0,1-1.7-1.2.657.657,0,0,0-1.08-.052,5.874,5.874,0,0,1-1.916,1.23A17.642,17.642,0,0,1,1.178,2.737a.679.679,0,0,0-.678.68v10.89c0,2.77,1.747,5.183,5.052,6.979a19.047,19.047,0,0,0,5.019,1.869,18.936,18.936,0,0,0,5.02-1.869c3.3-1.8,5.052-4.209,5.052-6.979V3.418a.68.68,0,0,0-.678-.681ZM15.32,17.03a.679.679,0,0,1-.678.681H6.5a.68.68,0,0,1-.678-.681V11.585A.68.68,0,0,1,6.5,10.9h.68V8.84a3.39,3.39,0,0,1,6.779,0,.678.678,0,1,1-1.357,0,2.033,2.033,0,0,0-4.066,0V10.9h6.1a.679.679,0,0,1,.678.68Zm0,0" transform="translate(-0.5 0)" fill="#68119a"/>
    </g>
  </g>
</svg>
