<svg xmlns="http://www.w3.org/2000/svg" width="24" height="24" viewBox="0 0 24 24">
  <g id="payments-icon" transform="translate(-1906 15386)">
    <rect id="Rectangle_1574" data-name="Rectangle 1574" width="24" height="24" transform="translate(1906 -15386)" fill="none"/>
    <g id="credit-card" transform="translate(1907.789 -15383.31)">
      <g id="Group_41033" data-name="Group 41033" transform="translate(0 3.903)">
        <g id="Group_41032" data-name="Group 41032">
          <path id="Path_20200" data-name="Path 20200" d="M9.109,129.293v-1.3H1.3a1.3,1.3,0,0,0-1.3,1.3v2.6H9.383A11.651,11.651,0,0,1,9.109,129.293Z" transform="translate(0 -127.992)" fill="#68119a"/>
        </g>
      </g>
      <g id="Group_41035" data-name="Group 41035" transform="translate(0 10.409)">
        <g id="Group_41034" data-name="Group 41034">
          <path id="Path_20201" data-name="Path 20201" d="M20.767,287.992a11.7,11.7,0,0,1-4.18,3.645,1.955,1.955,0,0,1-1.94,0,11.763,11.763,0,0,1-4.181-3.647H0V294.5a1.3,1.3,0,0,0,1.3,1.3H19.519a1.3,1.3,0,0,0,1.3-1.3v-6.506ZM5.856,291.9h-2.6a.651.651,0,0,1,0-1.3h2.6a.651.651,0,0,1,0,1.3Z" transform="translate(0 -287.992)" fill="#68119a"/>
        </g>
      </g>
      <g id="Group_41037" data-name="Group 41037" transform="translate(10.41)">
        <g id="Group_41036" data-name="Group 41036">
          <path id="Path_20202" data-name="Path 20202" d="M266.016,34.013l-4.554-1.952a.653.653,0,0,0-.514,0l-4.554,1.952a.649.649,0,0,0-.393.6v2.6c0,3.58,1.323,5.672,4.881,7.722a.654.654,0,0,0,.648,0c3.558-2.044,4.881-4.137,4.881-7.722v-2.6A.648.648,0,0,0,266.016,34.013Zm-2.35,2.956-2.6,3.253a.658.658,0,0,1-.509.243h-.027a.653.653,0,0,1-.514-.289l-1.3-1.952a.65.65,0,1,1,1.083-.721l.808,1.211,2.046-2.558a.651.651,0,0,1,1.018.812Z" transform="translate(-256 -32.008)" fill="#68119a"/>
        </g>
      </g>
    </g>
  </g>
</svg>
