<svg xmlns="http://www.w3.org/2000/svg" width="24" height="24" viewBox="0 0 24 24">
  <g id="personel-details-icon" transform="translate(-24 -381)">
    <rect id="Rectangle_1853" data-name="Rectangle 1853" width="24" height="24" transform="translate(24 381)" fill="none"/>
    <path id="UserFolder" d="M89.61,98.178H83.272a1.723,1.723,0,0,1-1.217-.5l-1.744-1.741a1.724,1.724,0,0,0-1.206-.5L74.469,95.4A3.446,3.446,0,0,0,71,98.845V111.1a3.446,3.446,0,0,0,3.446,3.446H89.61a3.446,3.446,0,0,0,3.446-3.446v-9.475a3.446,3.446,0,0,0-3.446-3.446Zm-7.582,2.051a3,3,0,1,1-3,3A3,3,0,0,1,82.028,100.229Zm4.5,12.278H77.533a1.2,1.2,0,0,1-1.142-1.565l.886-2.767a1.919,1.919,0,0,1,2.479-1.219,6.929,6.929,0,0,0,4.542,0,1.918,1.918,0,0,1,2.479,1.219l.886,2.767A1.2,1.2,0,0,1,86.524,112.507Z" transform="translate(-46 287.602)" fill="#68119a"/>
  </g>
</svg>
