<svg xmlns="http://www.w3.org/2000/svg" width="40" height="40" viewBox="0 0 40 40">
  <g id="push-notifications-icon" transform="translate(-24 -245)">
    <g id="Group_42285" data-name="Group 42285">
      <rect id="Rectangle_1871" data-name="Rectangle 1871" width="40" height="40" transform="translate(24 245)" fill="none"/>
      <g id="push-notifications-icon-2" data-name="push-notifications-icon" transform="translate(5 38.633)">
        <path id="iphone" d="M14.219,0H3.572a3.407,3.407,0,0,0-3.4,3.4V28.6a3.407,3.407,0,0,0,3.4,3.4H14.219a3.407,3.407,0,0,0,3.4-3.4V3.4a3.408,3.408,0,0,0-3.4-3.4ZM8.9,29.091a1.455,1.455,0,1,1,1.454-1.455A1.455,1.455,0,0,1,8.9,29.091ZM11.077,4.364H6.713a.727.727,0,1,1,0-1.454h4.364a.727.727,0,0,1,0,1.454Zm0,0" transform="translate(23.832 208.367)" fill="#68119a"/>
        <circle id="Ellipse_341" data-name="Ellipse 341" cx="13" cy="13" r="13" transform="translate(28 218)" fill="#fff"/>
        <circle id="Ellipse_342" data-name="Ellipse 342" cx="10" cy="10" r="10" transform="translate(31 221)" fill="#18d9c5"/>
        <g id="bell" transform="translate(36.156 224.367)">
          <path id="Path_20198" data-name="Path 20198" d="M12.6,9.255a3.665,3.665,0,0,1-1.3-2.8V4.925A3.833,3.833,0,0,0,8.019,1.138V.547a.547.547,0,1,0-1.094,0v.591A3.833,3.833,0,0,0,3.642,4.925V6.45A3.669,3.669,0,0,1,2.335,9.259a.957.957,0,0,0,.623,1.685h9.029A.958.958,0,0,0,12.6,9.255Z" transform="translate(-2 0)" fill="#fff"/>
          <path id="Path_20199" data-name="Path 20199" d="M10.336,22.642A2.055,2.055,0,0,0,12.347,21H8.326A2.055,2.055,0,0,0,10.336,22.642Z" transform="translate(-4.865 -9.509)" fill="#fff"/>
        </g>
      </g>
    </g>
  </g>
</svg>
