<svg xmlns="http://www.w3.org/2000/svg" width="40" height="40" viewBox="0 0 40 40">
  <g id="request-submit-icon" transform="translate(-4695 23616)">
    <rect id="Rectangle_1874" data-name="Rectangle 1874" width="40" height="40" transform="translate(4695 -23616)" fill="none"/>
    <g id="Group_42318" data-name="Group 42318" transform="translate(-0.718 -0.316)">
      <g id="interview" transform="translate(4697.718 -23613.684)">
        <path id="Path_20769" data-name="Path 20769" d="M217.443,0H198.884A6.08,6.08,0,0,0,192.8,6.083V33.922a1.445,1.445,0,0,0,2.31,1.155l5.8-4.351h16.531a6.08,6.08,0,0,0,6.084-6.084V6.083A6.08,6.08,0,0,0,217.443,0ZM206.72,22.993h-6.289a1.444,1.444,0,1,1,0-2.888h6.289a1.444,1.444,0,0,1,0,2.888Zm9.177-6.186H200.431a1.444,1.444,0,1,1,0-2.888H215.9a1.444,1.444,0,1,1,0,2.888Zm0-6.187H200.431a1.444,1.444,0,1,1,0-2.888H215.9a1.444,1.444,0,1,1,0,2.888Zm0,0" transform="translate(-192.801 0)" fill="#68119a"/>
      </g>
      <g id="Group_42317" data-name="Group 42317" transform="translate(-3 -2)">
        <circle id="Ellipse_346" data-name="Ellipse 346" cx="13" cy="13" r="13" transform="translate(4711 -23601)" fill="#fff"/>
        <path id="pencil" d="M11,1A10,10,0,1,0,21,11,10,10,0,0,0,11,1ZM9.2,16.387a.581.581,0,0,1-.333.16l-3.207.447A.324.324,0,0,1,5.58,17a.555.555,0,0,1-.407-.173.574.574,0,0,1-.167-.487l.447-3.207a.544.544,0,0,1,.16-.327L11.06,7.36l3.58,3.58ZM16.54,9.04l-1.08,1.08L11.88,6.54l1.08-1.08a1.585,1.585,0,0,1,2.233,0L16.54,6.807A1.573,1.573,0,0,1,17,7.927a1.546,1.546,0,0,1-.46,1.113Z" transform="translate(4713 -23599)" fill="#18d9c5"/>
      </g>
    </g>
  </g>
</svg>
