<svg xmlns="http://www.w3.org/2000/svg" xmlns:xlink="http://www.w3.org/1999/xlink" width="64" height="64" viewBox="0 0 64 64">
  <defs>
    <clipPath id="clip-path">
      <path id="Path_20942" data-name="Path 20942" d="M0,0H41.55V41.55H0Z" fill="none"/>
    </clipPath>
  </defs>
  <g id="web-link-icon" transform="translate(-157 -304)">
    <ellipse id="Ellipse_253" data-name="Ellipse 253" cx="32" cy="32" rx="32" ry="32" transform="translate(157 304)" fill="#ebf3ff"/>
    <g id="domain" transform="translate(168 315)" clip-path="url(#clip-path)">
      <path id="Path_20940" data-name="Path 20940" d="M28.883,16.62c.125,1.307.2,2.684.2,4.155a2.077,2.077,0,0,1-4.155,0,39.284,39.284,0,0,0-.218-4.155h-7.9a40.354,40.354,0,0,0-.008,8.31h3.972a2.077,2.077,0,0,1,0,4.155H17.484a25.876,25.876,0,0,0,3.293,8.31s1.639.027,1.924,0a2.078,2.078,0,0,1,.3,4.145c-.2.015-2.229.006-2.229.006A20.775,20.775,0,1,1,41.55,20.775a19.833,19.833,0,0,1-.164,2.318,2.08,2.08,0,0,1-4.128-.484,15.277,15.277,0,0,0,.137-1.834,16.6,16.6,0,0,0-.546-4.155ZM20.75,4.23A26.482,26.482,0,0,0,17.5,12.465h6.517A26.374,26.374,0,0,0,20.75,4.23ZM4.7,24.93h7.934c-.12-1.307-.2-2.68-.2-4.147q0-2.085.2-4.163H4.7a16.072,16.072,0,0,0,0,8.31Zm1.7,4.155a16.685,16.685,0,0,0,9.218,7.481,33.849,33.849,0,0,1-2.385-7.481Zm6.837-16.62A33.729,33.729,0,0,1,15.629,4.98,16.682,16.682,0,0,0,6.4,12.465Zm15.039,0h6.866a16.68,16.68,0,0,0-9.276-7.5A33.505,33.505,0,0,1,28.279,12.465Z" fill="#18d9c5" fill-rule="evenodd"/>
      <path id="Path_20941" data-name="Path 20941" d="M18.021,25.754,12.723,14.1A1.039,1.039,0,0,1,14.1,12.723l11.655,5.3a1.039,1.039,0,0,1,.035,1.875L22.17,21.705a1.039,1.039,0,0,0-.465.465L19.9,25.789a1.039,1.039,0,0,1-1.875-.035Z" transform="translate(13.605 13.605)" fill="#18d9c5"/>
    </g>
  </g>
</svg>
